<?xml version="1.0" encoding="utf-8"?>
<!-- Generator: Adobe Illustrator 16.0.0, SVG Export Plug-In . SVG Version: 6.00 Build 0)  -->
<!DOCTYPE svg PUBLIC "-//W3C//DTD SVG 1.1//EN" "http://www.w3.org/Graphics/SVG/1.1/DTD/svg11.dtd">
<svg version="1.1" id="Layer_1" xmlns="http://www.w3.org/2000/svg" xmlns:xlink="http://www.w3.org/1999/xlink" x="0px" y="0px"
	 width="246.25px" height="121px" viewBox="0 0 246.25 121" enable-background="new 0 0 246.25 121" xml:space="preserve">
<g>
	<g opacity="0.1">
		<path fill="#0F1616" d="M228.883,85.166c7.462-2.211,12.676-4.762,14.841-7.5c6.931-8.758-17.498-15.385-53.749-15.83
			c-36.251-0.446-74.932,5.633-87.922,14.634c-4.06,2.813-4.702,5.484-2.348,7.829l0,0l0,0l0,0l-29.112,18.108
			c0,0,6.009,18.027,53.138,18.485c26.815,0.261,52.498-3.498,62.235-8.165l0.041-0.005l0.126-0.077
			c0.971-0.48,1.775-0.974,2.406-1.477L228.883,85.166z"/>
	</g>
	<g>
		<ellipse fill="#F9F3D9" cx="121.437" cy="98.606" rx="51.399" ry="21.363"/>
		<polygon fill="#F9F3D9" points="193.757,36.847 171.658,103.228 119.597,116.655 118.615,46.222 		"/>
		<polygon fill="#F9F3D9" points="49.12,36.847 71.221,103.228 123.034,116.655 124.017,46.222 		"/>
		<path fill="#F9F3D9" d="M200.018,30.953c0-18.037-35.182-30.941-78.581-30.941c-43.398,0-78.581,12.904-78.581,30.941
			c0,18.039,35.182,32.66,78.581,32.66C164.836,63.613,200.018,48.992,200.018,30.953z"/>
		<ellipse opacity="0.15" fill="#0F1616" cx="121.314" cy="28.866" rx="67.162" ry="21.978"/>
		<g>
			<path fill="#ED4F00" d="M165.272,25.306c-4.502-8.186-13.753-6.631-13.753-6.631s-1.227-6.303-8.348-6.385
				c-3.521-2.701-6.877-0.736-6.877-0.736c-6.139-2.62-11.05,0.49-11.05,0.49c-5.238-3.765-10.313-0.49-10.313-0.49
				C95.285,7.133,86.691,20.64,86.691,20.64c-6.14-0.246-9.332,4.667-9.332,4.667c-9.577,1.636-11.787,10.558-11.787,10.558
				l-3.627,3.828c11.425,6.794,33.506,11.396,58.877,11.396c25.525,0,47.723-4.659,59.085-11.521l-2.357-2.721
				C175.668,24.487,165.272,25.306,165.272,25.306z"/>
		</g>
		<path fill="#F9F3D9" d="M118.042,4.023c0,0,28.65-3.603,47.967,6.058C166.009,10.081,144.89,4.351,118.042,4.023z"/>
		<path fill="#F9F3D9" d="M74.168,48.88c0,0,23.083,8.84,58.443,6.056C132.611,54.936,99.542,54.118,74.168,48.88z"/>
		<circle opacity="0.75" fill="#FEFEFD" cx="101.346" cy="20.868" r="5.546"/>
		<circle opacity="0.75" fill="#FEFEFD" cx="121.684" cy="37.045" r="5.547"/>
		<circle opacity="0.75" fill="#FEFEFD" cx="152.191" cy="28.263" r="6.933"/>
		<circle opacity="0.25" fill="#FEFEFD" cx="75" cy="35.196" r="5.546"/>
		<circle opacity="0.75" fill="#FEFEFD" cx="118.333" cy="15.898" r="3.119"/>
		<circle opacity="0.25" fill="#FEFEFD" cx="129.311" cy="16.245" r="3.928"/>
		<circle opacity="0.25" fill="#FEFEFD" cx="83.436" cy="25.836" r="2.888"/>
		<circle opacity="0.25" fill="#FEFEFD" cx="138.671" cy="14.974" r="2.195"/>
		<circle fill="#ED4F00" cx="126.306" cy="40.281" r="5.546"/>
		<circle fill="#ED4F00" cx="99.959" cy="28.263" r="7.704"/>
		<circle fill="#ED4F00" cx="155.889" cy="31.499" r="7.703"/>
		<circle fill="#ED4F00" cx="149.417" cy="34.272" r="7.703"/>
		<circle fill="#ED4F00" cx="132.315" cy="19.943" r="5.547"/>
		<circle opacity="0.25" fill="#FEFEFD" cx="110.937" cy="30.228" r="3.12"/>
		<circle opacity="0.75" fill="#FEFEFD" cx="102.617" cy="36.699" r="2.196"/>
		<circle fill="#ED4F00" cx="105.854" cy="21.446" r="2.195"/>
		<circle fill="#ED4F00" cx="119.719" cy="40.858" r="2.607"/>
		<circle fill="#ED4F00" cx="79.507" cy="38.085" r="2.607"/>
		<g opacity="0.5">
			<path fill="#631E00" d="M120.823,51.089c25.525,0,47.723-4.659,59.085-11.521l-2.357-2.721
				c-1.179-7.735-5.69-10.309-8.902-11.151c-11.39,21.477-75.406,21.938-106.093,13.353l-0.61,0.644
				C73.371,46.486,95.452,51.089,120.823,51.089z"/>
		</g>
		<path opacity="0.05" fill="#0F1616" d="M123.313,63.599c-0.778,0.01-1.556,0.015-2.338,0.015c-0.864,0-1.724-0.005-2.581-0.021
			c-31.277-0.474-56.006-8.91-66.054-17.071c36.51,31.62,112.2,44.883,125.964,36.511l12.233-36.515
			C177.581,56.433,152.167,63.247,123.313,63.599z"/>
	</g>
</g>
</svg>
