<?xml version="1.0" encoding="utf-8"?>
<!-- Generator: Adobe Illustrator 16.0.0, SVG Export Plug-In . SVG Version: 6.00 Build 0)  -->
<!DOCTYPE svg PUBLIC "-//W3C//DTD SVG 1.1//EN" "http://www.w3.org/Graphics/SVG/1.1/DTD/svg11.dtd">
<svg version="1.1" id="Layer_1" xmlns="http://www.w3.org/2000/svg" xmlns:xlink="http://www.w3.org/1999/xlink" x="0px" y="0px"
	 width="100px" height="100px" viewBox="0 0 100 100" enable-background="new 0 0 100 100" xml:space="preserve">
<g>
	<path fill="#FE9338" d="M76.183,65.114c0,2.591-2.121,4.711-4.713,4.711H28.124c-2.592,0-4.713-2.12-4.713-4.711v-32.04
		c0-2.591,2.121-4.712,4.713-4.712H71.47c2.592,0,4.713,2.121,4.713,4.712V65.114z M71.47,32.132H28.124
		c-0.502,0-0.943,0.441-0.943,0.942c0,3.357,1.679,6.272,4.329,8.363c3.945,3.092,7.892,6.214,11.809,9.335
		c1.561,1.267,4.388,3.976,6.448,3.976h0.03h0.03c2.061,0,4.888-2.709,6.448-3.976c3.917-3.121,7.863-6.243,11.809-9.335
		c1.914-1.501,4.329-4.77,4.329-7.273C72.413,33.428,72.59,32.132,71.47,32.132z M72.413,42.498
		c-0.619,0.707-1.296,1.354-2.032,1.943c-4.211,3.24-8.451,6.538-12.545,9.954c-2.208,1.855-4.947,4.123-8.009,4.123h-0.03h-0.03
		c-3.062,0-5.801-2.268-8.009-4.123c-4.094-3.416-8.334-6.714-12.545-9.954c-0.736-0.589-1.413-1.237-2.032-1.943v22.617
		c0,0.5,0.441,0.941,0.943,0.941H71.47c0.502,0,0.943-0.441,0.943-0.941V42.498z"/>
</g>
<circle fill="none" stroke="#FE9338" stroke-width="3.5" stroke-miterlimit="10" cx="49.708" cy="49.958" r="47.958"/>
</svg>
