<?xml version="1.0" encoding="utf-8"?>
<!-- Generator: Adobe Illustrator 20.0.0, SVG Export Plug-In . SVG Version: 6.00 Build 0)  -->
<svg version="1.1" id="Layer_1" xmlns="http://www.w3.org/2000/svg" xmlns:xlink="http://www.w3.org/1999/xlink" x="0px" y="0px"
	 viewBox="0 0 468 492" style="enable-background:new 0 0 468 492;" xml:space="preserve">
<style type="text/css">
	.st0{fill:#FFFFFF;}
	.st1{opacity:0.25;}
	.st2{fill:#FFE000;}
	.st3{fill:#E08F00;}
	.st4{fill:#AFCE4E;}
	.st5{fill:#FFC757;}
	.st6{fill:#CE7500;}
	.st7{fill:#FFE2B0;}
	.st8{fill:#AD5E00;}
	.st9{fill:#773B00;}
	.st10{fill:#5F8223;}
	.st11{opacity:0.6;fill:#773B00;}
	.st12{fill:#435B15;}
	.st13{opacity:0.1;}
	.st14{fill:#0F1616;}
	.st15{opacity:0.15;fill:#0F1616;}
	.st16{fill:#ED4F00;}
	.st17{opacity:0.75;fill:#FEFEFD;}
	.st18{opacity:0.25;fill:#FEFEFD;}
	.st19{opacity:0.5;}
	.st20{fill:#631E00;}
	.st21{opacity:8.000000e-02;fill:#0F1616;}
	.st22{font-family:'OpenSans-Extrabold';}
	.st23{font-size:21.987px;}
	.st24{letter-spacing:-1;}
	.st25{fill:none;stroke:#FFFFFF;stroke-width:3;stroke-linecap:round;stroke-miterlimit:10;}
</style>
<g>
	<g>
		<g>
			<path class="st0" d="M114.3,96.2c0,0,22.2,6.5,91.2,5.9c24.2-0.2,51.7-6.2,89.3-7l33.1,69.2c0,0-106.2-0.9-245.2,3.4L114.3,96.2z
				"/>
			<g class="st1">
				<path class="st2" d="M328.9,164.3l-33.1-69c-0.1,0-0.3-0.1-0.4-0.1c-1.5,0.2-3,0.3-4.5,0.5c-44.4,48.8-139.1,50.2-206.9,45.4
					l-0.2,24.5l1.9,2.1C205,164,205,163.3,328.9,164.3z"/>
			</g>
		</g>
		<g>
			<polygon class="st3" points="85.7,106.3 87.9,101.4 83.5,102.4 85.9,102.5 			"/>
			<polygon class="st3" points="84.7,108.6 85.6,109 85.7,106.3 			"/>
			<polygon class="st3" points="58.6,182 57,183.2 60,185.2 			"/>
			<polygon class="st3" points="28.8,161.4 28.5,161.1 28.2,162.4 			"/>
			<polygon class="st3" points="35.4,165.8 34.1,164.9 33.5,165.8 			"/>
			<polygon class="st3" points="27.5,165.9 28.3,165.9 27.6,165.5 			"/>
			<path class="st3" d="M42.8,172.1l3.4,2.1l-0.1-8.6l-10.7,0.2l2,1.3l-6.5,9.7c0.5,0.7,1.1,1.3,1.6,2l7.8-2.3L42.8,172.1z"/>
			<polygon class="st3" points="46.2,185.7 46.4,185.7 46.3,178.6 44.8,181.1 			"/>
			<path class="st3" d="M46.2,185.7l-6.1,0.1c1.5,1.1,3.1,2.1,4.8,3l1.5-2.3L46.2,185.7z"/>
			<path class="st3" d="M44.8,181.1l-0.8,1.3l-5.4-3.3l1.6-2.6l-7.8,2.3c2.3,2.7,4.9,5,7.7,7.1l6.1-0.1L44.8,181.1z"/>
			<path class="st3" d="M47.5,190c-0.9-0.4-1.7-0.8-2.6-1.3l-1.9,2.8l0.6,0.4l4.2-1.2L47.5,190z"/>
			<path class="st3" d="M44.9,188.8c0.8,0.4,1.7,0.9,2.6,1.3l-1-3.5L44.9,188.8z"/>
			<path class="st3" d="M25.7,133.9c0.5-1.2,1.1-2.4,1.8-3.6l-3.1-6l-5.4,0.2l0.4,9.3l2.1-2.9L25.7,133.9z"/>
			<path class="st3" d="M34.6,139.8l-0.3-8.1l-4.8,2.5l-1.9-3.7c-0.6,1.2-1.2,2.4-1.8,3.6l8.1,5.9L34.6,139.8z"/>
			<path class="st3" d="M35.2,140.8l-1.4-1l-2.8,0.1l1.4,2.4l-4.9,2.9l-2.5-4.2l1.5-0.9l-2.9,0.1c-0.8,3.2-1.3,6.4-1.4,9.8l5.6,1.1
				L35.2,140.8z"/>
			<path class="st3" d="M29.9,138l1.1,1.9l2.8-0.1l-8.1-5.9c-0.9,2-1.6,4.1-2.2,6.3l2.9-0.1L29.9,138z"/>
			<polygon class="st3" points="50.3,125.6 42.5,123.9 55.4,130.6 57.9,125.7 52,117.7 			"/>
			<polygon class="st3" points="41.9,123.8 42.5,123.9 41.8,123.5 			"/>
			<path class="st3" d="M31.7,124l-7.3,0.3l3.1,6C28.7,128.1,30.1,126,31.7,124z"/>
			<path class="st3" d="M34.2,131.6l-0.3-7.7l-2.2,0.1c-1.6,2-3,4.1-4.2,6.3l1.9,3.7L34.2,131.6z"/>
			<path class="st3" d="M170.8,146.9l3-5.2l-11-11.6l-6.5,10l-12-7.9l8.5-13l6.4,4.2l2-10.3l-6-6.8l-6.7,6l-8.1-8.4l2.2-2.1l5-4.8
				l1-1l1.1,1.2l4-5.9l-5.1-3.4l-1.6-1.1l-6.4-4.3l-4.8,7.1l-6.9,1.7l-11.1-0.9l-0.3,3.7l-1.9,0.5l-4.2-4.4l-7.5,7.2l-4.7,1.1
				L90.6,95l-2.7,6.4l-2.1,5l-0.1,2.7l-0.9-0.4l1-2.3l0.1-3.8l-2.4-0.1L68,101.8l-0.2,4.4l-3.8,0.9l-1.9-2.6l-4.3,3.1l-10.4-5.4
				l-3.5,6.6l-5.9-1.3l-1.3,6l0,0l-14.1,7.2l1.8,3.5l7.3-0.3l2.2-0.1l0.3,7.7l0.3,8.1l-0.7,0l1.4,1l-7.4,10.3l-5.6-1.1
				c0.1-3.3,0.5-6.6,1.4-9.8c0.6-2.2,1.3-4.3,2.2-6.3l-4.2-3l-2.1,2.9L11,145.4l4.7,3.4l-3,15.4l8.1,1.6l-3,4.5l7.1,4.8l0.2,11
				l5.7-0.1l2.6,9l10.1-3l-0.6-0.4l1.9-2.8c-1.7-0.9-3.2-1.9-4.8-3c-2.8-2-5.4-4.4-7.7-7.1c-0.6-0.6-1.1-1.3-1.6-2l6.5-9.7l-2-1.3
				l-1.8,0l-1.4,2.4l-3.8-2.3l-0.8,0l0.1-0.4l-0.9-0.5l1.5-2.5l0.3-1.3l0.4,0.2l2-3.4l5.4,3.3l-2.2,3.7l1.3,0.9l10.7-0.2l0.1,8.6
				l2,1.2l-1.9,3.2l0.1,7.1l-0.3,0l0.2,0.8l1,3.5l0.2,0.7l-4.2,1.2l12.5,8.5l4-5.8l2.2,3l5.6-4.1c2.4-0.2,4.9-0.5,7.3-1.1l0.7-0.2
				l9.2,3.1l2-5.8l8.2-2l7.1,3.1l2.3-5.3l4-1l6.4,4.3l4.8-7.1l1.5-0.4l14,1.2l0.4-4.7l7-1.7l4,2.1l1.8-3.5l6.1-1.5l1.7,3l10.5-5.9
				l6.3-1.5l-0.3-0.7l-4.4-10.2l-0.9-2.2l-1.9,0.1l-0.6-8.4L170.8,146.9z M152.5,154l5.4,3.3l-0.8,1.3l-3.2,5.4l-0.1,0.2l-3.2-1.9
				l-0.1,0l-2.2-1.3L152.5,154z M42.5,123.9l-0.6-0.1l-0.1-0.2L42.5,123.9l7.9,1.7l1.7-7.9l5.9,8.1l-2.5,4.9L42.5,123.9z M74.5,119
				l4.1,1.1l-3.7,13.7l-13.3-3.6l2.3-8.4l1.4-5.2l2,0.5l2.2,0.6L74.5,119z M75.1,150.8l-0.6-8.4l7.2-0.5l0.6,8.4L75.1,150.8z
				 M83.8,161.7l-2.5,9.2l-7-1.9l2.5-9.2L83.8,161.7z M93.9,170.9l0-0.7l7.2-0.5l0.3,4.4l0.3,4l-7.2,0.5L93.9,170.9z M107.1,104.3
				l4.9-2.4l2.1,4.2l-4.9,2.4L107.1,104.3z M128,136.5l4.2-6.9l5.4,3.3l-4.2,6.9L128,136.5z M136.3,151.8l-4,2.4l-2.8-4.7l4-2.4
				L136.3,151.8z M132.4,117.3l-7-1.5l1.4-6.4l7,1.5L132.4,117.3z M114.3,119.5l5.5,5.7l-5.5,5.3l-5.5-5.7L114.3,119.5z
				 M120.9,139.9l-6,11.3l-12.3-6.5l6-11.3L120.9,139.9z M121.1,172.1l-0.6-0.6l-5.5-5.7l6.2-6l6.1,6.4l-0.7,0.7L121.1,172.1z
				 M99,113.1l0.8,0.6l5.2,3.6l-4.9,7l-6-4.2l4-5.7L99,113.1z M98.8,151.9l-2.1,7.7l-7.5-2l2.1-7.7L98.8,151.9z M38.9,128l1.9,0.3
				l8.6,1.2l-1.3,9l-10.5-1.5l1.1-7.6L38.9,128z M42.5,160.7l3.2-15.3l14,2.9l-3.2,15.3L42.5,160.7z M61.8,186.4l-1.1,0.5l-0.7-1.7
				l-3-2.1l1.6-1.2l-1.8-4.2l10.6-4.6l3.6,8.2l0.4,0.9l-0.6,0.3l-0.1,0.1L61.8,186.4z"/>
			<polygon class="st4" points="37.7,136.9 48.1,138.4 49.4,129.5 40.8,128.2 38.7,129.3 			"/>
			<polygon class="st4" points="38.7,129.3 40.8,128.2 38.9,128 			"/>
			<polygon class="st5" points="24.9,141 27.5,145.2 32.4,142.3 31,139.9 26.4,140.1 			"/>
			<polygon class="st5" points="26.4,140.1 31,139.9 29.9,138 			"/>
			<polygon class="st5" points="100,124.3 104.9,117.3 99.8,113.7 99.3,114.9 98.1,114.4 94.1,120.1 			"/>
			<polygon class="st5" points="99.8,113.7 99,113.1 98.1,114.4 99.3,114.9 			"/>
			<polygon class="st5" points="74.9,133.7 78.6,120.1 74.5,119 68.1,118.7 63.9,121.7 61.7,130.2 			"/>
			<polygon class="st5" points="67.3,118.7 67.4,117 65.3,116.5 63.9,121.7 68.1,118.7 			"/>
			<polygon class="st5" points="74.5,119 69.6,117.6 68.1,118.7 			"/>
			<polygon class="st5" points="68.1,118.7 69.6,117.6 67.4,117 67.3,118.7 			"/>
			
				<rect x="126.3" y="109.8" transform="matrix(0.2127 -0.9771 0.9771 0.2127 -8.6997 215.8515)" class="st4" width="6.6" height="7.1"/>
			<polygon class="st6" points="144.2,132.3 156.2,140.1 162.8,130.1 158.6,125.8 159.1,123.5 152.7,119.3 			"/>
			
				<rect x="105.5" y="135.4" transform="matrix(0.4681 -0.8836 0.8836 0.4681 -66.2666 174.5023)" class="st6" width="12.7" height="13.9"/>
			
				<rect x="43.3" y="147.4" transform="matrix(0.2049 -0.9788 0.9788 0.2049 -110.5976 172.9087)" class="st6" width="15.6" height="14.4"/>
			
				<rect x="107.9" y="102.8" transform="matrix(0.8967 -0.4427 0.4427 0.8967 -35.1256 59.8315)" class="st7" width="5.5" height="4.7"/>
			<polygon class="st5" points="149.6,97.4 148.4,96.2 147.5,97.2 148.5,99 			"/>
			
				<rect x="128.7" y="131.5" transform="matrix(0.5156 -0.8568 0.8568 0.5156 -51.0869 179.0328)" class="st8" width="8.1" height="6.3"/>
			
				<rect x="90.1" y="150.9" transform="matrix(0.2608 -0.9654 0.9654 0.2608 -79.8524 205.1927)" class="st6" width="7.9" height="7.7"/>
			
				<rect x="110.5" y="121.1" transform="matrix(0.7189 -0.6951 0.6951 0.7189 -54.7817 114.5976)" class="st6" width="7.7" height="7.9"/>
			<polygon class="st8" points="165.6,155.7 167.5,155.6 166.7,153.8 170.8,146.9 165,147.3 			"/>
			<polygon class="st9" points="152.5,154 148.3,161 150.5,162.3 150.6,162.3 157.1,158.6 157.9,157.3 			"/>
			<polygon class="st9" points="153.9,164 157.1,158.6 150.6,162.3 			"/>
			<polygon class="st9" points="150.5,162.3 150.6,162.3 150.6,162.3 			"/>
			<polygon class="st9" points="150.6,162.3 153.7,164.2 153.9,164 150.6,162.3 			"/>
			<polygon class="st8" points="56.8,177.8 58.6,182 66.2,176.4 70.6,182.4 70.9,181.4 67.4,173.2 			"/>
			<polygon class="st8" points="66.2,176.4 58.6,182 60,185.2 61.8,186.4 70.5,182.6 70.6,182.4 			"/>
			<polygon class="st8" points="70.7,182.5 71.3,182.3 70.9,181.4 70.6,182.4 			"/>
			<polygon class="st8" points="70.5,182.6 70.7,182.5 70.6,182.4 			"/>
			<polygon class="st8" points="60.7,186.9 61.8,186.4 60,185.2 			"/>
			
				<rect x="74.3" y="161.7" transform="matrix(0.2606 -0.9654 0.9654 0.2606 -101.1497 198.615)" class="st8" width="9.6" height="7.2"/>
			<polygon class="st9" points="48.2,175.4 46.2,174.2 46.3,178.6 			"/>
			<polygon class="st9" points="40.2,176.5 43.2,175.6 44.8,181.1 46.3,178.6 46.2,174.2 42.8,172.1 			"/>
			<polygon class="st9" points="40.2,176.5 38.6,179.1 44.1,182.3 44.8,181.1 43.2,175.6 			"/>
			<polygon class="st9" points="93.8,170.2 93.9,170.9 101.4,174.1 101.1,169.7 			"/>
			<polygon class="st9" points="94.4,178.6 101.6,178.1 101.4,174.1 93.9,170.9 			"/>
			<polygon class="st8" points="121.1,159.8 114.9,165.8 120.5,171.5 120.9,166.3 126.6,166.8 127.3,166.1 			"/>
			<polygon class="st8" points="120.5,171.5 121.1,172.1 126.6,166.8 120.9,166.3 			"/>
			
				<rect x="74.8" y="142.1" transform="matrix(0.9976 -6.956713e-02 6.956713e-02 0.9976 -9.9874 5.8121)" class="st10" width="7.2" height="8.4"/>
			<polygon class="st10" points="36.3,161.2 30.9,158 28.8,161.4 34.1,164.9 			"/>
			<polygon class="st10" points="27.6,165.5 28.3,165.9 33.5,165.8 34.1,164.9 28.8,161.4 28.2,162.4 			"/>
			<polygon class="st10" points="26.7,164.9 27.6,165.5 28.2,162.4 			"/>
			<polygon class="st10" points="32.1,168.2 33.5,165.8 28.3,165.9 			"/>
			
				<rect x="130.5" y="147.9" transform="matrix(0.8601 -0.5102 0.5102 0.8601 -58.2405 88.8455)" class="st10" width="4.7" height="5.5"/>
			<polygon class="st5" points="148.5,99 147.5,97.2 142.5,102 140.3,104.1 148.4,112.5 155.2,106.6 			"/>
			<polygon class="st11" points="161.1,113.2 146.6,119.3 158.6,125.8 			"/>
			<polygon class="st11" points="173.8,141.8 155.7,147.4 166.7,153.8 			"/>
			<polygon class="st11" points="153.6,91.5 146.3,91.7 148.5,99 			"/>
			<g class="st1">
				<polygon class="st5" points="135.4,183 135.8,178.3 135.4,183 				"/>
				<polygon class="st5" points="85.1,195.5 85.1,195.5 87.1,189.7 87.1,189.7 				"/>
				<polygon class="st5" points="102.4,190.7 102.4,190.7 95.3,187.7 				"/>
				<polygon class="st5" points="156.4,176.2 166.8,170.2 156.4,176.2 				"/>
				<polygon class="st5" points="146.8,178.5 148.5,175 148.5,175 				"/>
				<polygon class="st5" points="142.8,176.1 146.8,178.2 142.8,176.1 				"/>
				<polygon class="st9" points="102.4,190.7 102.4,190.7 104.7,185.4 104.7,185.4 				"/>
				<polygon class="st9" points="135.4,182.5 135.4,182.5 121.4,181.3 				"/>
				<polygon class="st9" points="156,173.2 157,176.5 157.4,176.5 156,173.2 				"/>
				<polygon class="st9" points="85.1,195.5 85.1,195.5 75.9,192.4 				"/>
				<path class="st9" d="M168.4,157.7l-0.9-2.2l-0.4-1c-50.8,19.9-107.2,30.1-135.4,34.4l1.8,6.1l10.1-3l12.5,8.5l4-5.8l2.2,3
					l5.6-4.1c2.4-0.2,4.9-0.5,7.3-1.1l0.7-0.2l9.2,3.1l2-5.8l0,0l8.2-2l7.1,3.1l2.3-5.3l0,0l4-1l6.4,4.3l4.8-7.1l1.5-0.4l14,1.2
					l0.4-4.7l7-1.7l0,0l4,2.3l1.8-3.3l0.7,0l6.8-1.9v0l1,3l10.1-5.9l6.2-1.5l-0.4-0.7L168.4,157.7z"/>
			</g>
		</g>
		<g>
			<polygon class="st3" points="282.3,89 277.4,87.8 278.7,89.8 			"/>
			<polygon class="st3" points="306.8,95.1 303.3,94.2 304.7,97.4 			"/>
			<polygon class="st3" points="295.5,92.3 292.7,91.6 293,93.4 			"/>
			<polygon class="st3" points="338.3,102.9 335.8,102.3 336.3,104.4 			"/>
			<polygon class="st3" points="324.5,99.5 321.3,98.7 322.6,99.9 			"/>
			<polygon class="st3" points="263.9,96.2 263.4,95.4 263.4,95.9 			"/>
			<polygon class="st3" points="345.5,117.2 345.8,117 345.4,116.8 			"/>
			<polygon class="st3" points="334.7,97.2 324.5,99.5 335.8,102.3 			"/>
			<polygon class="st3" points="326.5,103.4 322.3,108 323.5,113.6 336.9,110.6 333.8,106.1 336.3,104.4 335.8,102.3 324.5,99.5 
				322.6,99.9 			"/>
			<polygon class="st3" points="336.3,104.4 333.8,106.1 336.9,110.6 337.6,110.4 			"/>
			<polygon class="st3" points="311.7,89.8 306.8,95.1 321.3,98.7 			"/>
			<polygon class="st3" points="307.3,103.1 311.6,105 308.3,112.7 302,110 312,119.2 322.3,108 320.6,100.3 322.6,99.9 321.3,98.7 
				306.8,95.1 304.7,97.4 			"/>
			<polygon class="st3" points="303.2,106.2 299.6,107.8 301.7,109.7 			"/>
			<polygon class="st3" points="322.6,99.9 320.6,100.3 322.3,108 326.5,103.4 			"/>
			<polygon class="st3" points="301.2,89.7 295.5,92.3 303.3,94.2 			"/>
			<polygon class="st3" points="294.8,101.5 290.6,102.4 294.2,110.3 299.6,107.8 297.2,105.6 304.7,97.4 303.3,94.2 295.5,92.3 
				293,93.4 			"/>
			<polygon class="st3" points="305,102.1 307.3,103.1 304.7,97.4 297.2,105.6 299.6,107.8 303.2,106.2 			"/>
			<polygon class="st3" points="291.7,87 282.3,89 292.7,91.6 			"/>
			<polygon class="st3" points="282.5,95.1 277.9,98.4 279.3,104.9 285,103.6 285.6,103.1 285.9,103.4 290.6,102.4 287.7,95.9 
				293,93.4 292.7,91.6 282.3,89 278.7,89.8 			"/>
			<polygon class="st3" points="278.7,89.8 276.2,90.3 277.9,98.4 282.5,95.1 			"/>
			<polygon class="st3" points="293,93.4 287.7,95.9 290.6,102.4 294.8,101.5 			"/>
			<polygon class="st3" points="290.8,173 292.6,171 290.5,171.5 			"/>
			<polygon class="st3" points="264.1,172.7 264.3,173.2 265.2,173 			"/>
			<polygon class="st3" points="381.5,149.9 382.5,150.4 381.8,149.2 			"/>
			<path class="st3" d="M367.6,120.5L367.6,120.5l5.7-3.2l4.1-2.3c-1.4-0.9-3-1.8-4.5-2.5l-0.3-3.5l-7.7,0.6c0,0,0,0-0.1,0
				l-10.7-7.1l-2.3,3.5l-5.9-8.4l-7.6,5.4l-2.1,1.5l1.3,6.1l-0.7,0.2l2,2.9l5-1.5l1.2,3.9l0.3,0.9l0.4,0.2l14,9.3l1.1-1.6l2.6-0.2
				l1.2-2.7l5,2.1l0,0h0l4.2-0.3l-0.5-6.5L367.6,120.5z"/>
			<path class="st3" d="M371.6,174.1l-1,2.3l1.2-0.2l0.8,5.5l2.1,0l0.1,6.9c1.3-0.7,2.6-1.5,3.8-2.3l-6.3-11.9L371.6,174.1z"/>
			<path class="st3" d="M402.1,161.8l-5.5-4.2c0.1-0.5,0.2-1.1,0.2-1.6l3.4-1.9l-3.1-5.5c-0.1-1.2-0.2-2.4-0.4-3.6l3.9-8.3l-5.1-2.4
				l1.6-9.2l-10.2-1.8c-0.6-0.8-1.3-1.5-2-2.2l-4.4-7.9l-3.1,1.8l-4.1,2.3l0.5,6.5l-4.2,0.3l1.6,0.7l-0.5,1.2l4.7,8.3l4-2.2
				l-6.5,13.8l2.2,1l3.2-7.4l6.6,2.9l-2.3,5.3l-0.7,1.5l0.7,1.2l4.1,7.2l-3.3,4.3l0.9,1.6l-3.4,2.1l1.9,1.4l-11.2,5.9l0.8,1.5
				l6.3,11.9c-1.2,0.8-2.5,1.6-3.8,2.3l0.1,4.2l4,1.8l3.8-8.5l12.6-6.7l-2.7-5.1L402.1,161.8z"/>
			<polygon class="st3" points="335.7,179.5 332,179.6 332.9,181.6 			"/>
			<polygon class="st3" points="335.7,179.5 339.7,179.5 339.1,177.1 			"/>
			<polygon class="st3" points="358.9,186.3 358.9,183.7 354.4,180.1 			"/>
			<polygon class="st3" points="358.9,181.9 358.9,183.7 360.4,184.8 359.9,181.9 			"/>
			<path class="st3" d="M370.2,190.7l4.6,2l-0.1-4.2C373.3,189.4,371.8,190.1,370.2,190.7z"/>
			<path class="st3" d="M372.6,181.7l0.8,5.2l-7.9,1.2l-0.2,0.5l5,2.2c1.6-0.6,3.1-1.3,4.6-2.1l-0.1-6.9L372.6,181.7z"/>
			<polygon class="st3" points="359.5,187.1 358.9,186.3 359,187.5 			"/>
			<polygon class="st7" points="284.8,117.7 292.5,110.2 285.9,103.4 285,103.6 277.9,110.6 			"/>
			<polygon class="st7" points="285.6,103.1 285,103.6 285.9,103.4 			"/>
			
				<rect x="284.1" y="128.9" transform="matrix(0.6908 -0.7231 0.7231 0.6908 -8.1234 251.4847)" class="st6" width="11.8" height="12.7"/>
			
				<rect x="339.4" y="144.1" transform="matrix(0.7487 -0.6629 0.6629 0.7487 -12.5736 266.8937)" class="st6" width="12.7" height="11.8"/>
			<path class="st3" d="M380.9,165.5l-3.5,2.1l-3.3-5.4l6.9-4.2l2.3,3.8l3.3-4.3l-4.1-7.2l-1-0.5l-0.1,0.1l-6.6-2.9l0.1-0.3l-2.2-1
				l6.5-13.8l-4,2.2l-4.7-8.3l-2.9,6.5l-6.6-2.9l2.2-5l-2.6,0.2l-1.1,1.6l-14-9.3l-0.2,0.2l1.8,6l-10.9,3.2l-3.3-11.2l5.9-1.7
				l-2-2.9l-13.4,3l-1.2-5.6L312,119.2l-10-9.2l-0.4-0.2l0.1-0.1l-2.1-1.9l-5.4,2.5l-3.6-7.8l-4.7,1l6.6,6.8l-7.7,7.5l-6.9-7.1
				l7.1-6.9l-5.7,1.2l-1.4-6.5l-1.7-8.1l2.5-0.5l-1.4-2L274,83l-4.2,3l-6.1-5.8L249,94.4l3,16.8l-13.4,12.5l11.5,18.7l-12.6,12.2
				l3.7,16.5l4.3-3l3.1,0.8l1.6,7.4l14.2-3l-0.2-0.5l1.1,0.3l-0.9,0.2l1.8,4l5.6-2.5l1.9,0.5l8.3,7.6l4.2-4.5l6.2,1.5l1.1,5
				l10.1-2.2l4.7,1.2l4.6,6.6l5.6-4l0.2,0l2.2,5l6.4-2.9l1.1,0.3l0.1,4.6l8.8-0.2l4.9,6.6l6.7-4.9l5.9,4.7l4.2-5.3l0,2.6l15.8-0.2
				l-0.1-3.8l-4.6-2l-5-2.2l0.2-0.5l-1.7,0.3l-2.8,0.4l-0.6-3.9l-1.4-1.2l0,2.6l0.6,0.8l-0.5,0.4l0-1.2l-4.6-6.2l4.5,3.6l0-1.8l1,0
				l-0.6-3.8l11.3-1.7l1-2.3l0.7,0.3l-0.8-1.5l11.2-5.9L380.9,165.5z M270.7,112l4.5,4.7l-4,3.8l-4.5-4.7L270.7,112z M261.8,97.7
				l0.9-2.1l0.7,0.3l0-0.6l0.6,0.8l5.4,2.4l-1.4,3.3l-1.9,4.4l-6.6-2.9L261.8,97.7z M255.5,136.1l-5.7-5.2l5.4-5.8l5.7,5.2
				L255.5,136.1z M268.2,158.8l-4.5,4.9l-2,2.2l-1.1-1l-5.4-5l-3.5-3.2l9.5-10.3l10,9.2L268.2,158.8z M270.1,147.1l-3.5-7.3l5.7-2.7
				l3.5,7.3L270.1,147.1z M361,138.3l4.5,4.7l-4,3.8l-4.5-4.7L361,138.3z M346.6,141.4l7.8,8.8l-9.5,8.4l-7.8-8.8L346.6,141.4z
				 M334.3,159l-5.4,5.8l-5.7-5.2l5.4-5.8L334.3,159z M327.2,139.3l4.4,1.9l-2.2,5.1l-4.4-1.9L327.2,139.3z M313.5,118.7l11.8,4.8
				l-3.8,9.2l-11.8-4.8L313.5,118.7z M313.7,140.3l-0.8,8.4l-7.2-0.7l0.8-8.4L313.7,140.3z M289.4,126.6l9.2,8.8l-8.1,8.5l-9.2-8.8
				L289.4,126.6z M288.6,167.5l-6.8-4.9l3.9-5.4l0.3-0.4l6.8,4.9l-0.9,1.3L288.6,167.5z M290.5,171.5l2.1-0.5l-1.8,2L290.5,171.5z
				 M310.5,172.5l-3.4,0.2l-0.9-12.5l10.7-0.8l0.8,11.9l0,0.6L310.5,172.5z M342.7,180.7l-2.4,0.7l-0.6-1.9l-4,0.1l-2.8,2.1l-0.9-2
				l3.7-0.1l3.3-2.4l-1.3-4.2l8.3-2.4l0.4,1.3l2.1,7.2L342.7,180.7z M359.5,169.8l-5.2-9.4l7.3-4l5.2,9.4L359.5,169.8z"/>
			
				<rect x="312.5" y="119.3" transform="matrix(0.3802 -0.9249 0.9249 0.3802 80.5317 371.5316)" class="st5" width="9.9" height="12.7"/>
			<polygon class="st5" points="263.4,97.6 261.8,97.7 259.3,103.4 266,106.3 267.9,101.8 263.9,96.2 263.4,95.9 			"/>
			<polygon class="st5" points="263.4,95.9 262.7,95.6 261.8,97.7 263.4,97.6 			"/>
			<polygon class="st5" points="269.3,98.5 263.9,96.2 267.9,101.8 			"/>
			<polygon class="st5" points="336.4,126.4 347.3,123.2 345.5,117.2 342.9,119 339,113.5 333.1,115.2 			"/>
			<polygon class="st5" points="345.5,117.2 345.4,116.8 344.8,116.4 345.2,115.9 344,112 339,113.5 342.9,119 			"/>
			<polygon class="st5" points="345.4,116.8 345.2,115.9 344.8,116.4 			"/>
			
				<rect x="305.5" y="140.5" transform="matrix(9.407260e-02 -0.9956 0.9956 9.407260e-02 137.0202 438.8998)" class="st6" width="8.4" height="7.2"/>
			
				<rect x="268.1" y="113.1" transform="matrix(0.7256 -0.6881 0.6881 0.7256 -5.7104 218.3186)" class="st6" width="5.6" height="6.5"/>
			
				<rect x="356.4" y="157.7" transform="matrix(0.876 -0.4823 0.4823 0.876 -33.9325 194.125)" class="st8" width="8.4" height="10.7"/>
			
				<rect x="251.4" y="126.7" transform="matrix(0.6787 -0.7344 0.7344 0.6787 -13.8503 229.4559)" class="st6" width="7.9" height="7.7"/>
			
				<rect x="268" y="138" transform="matrix(0.9009 -0.4339 0.4339 0.9009 -34.7943 131.7584)" class="st8" width="6.3" height="8.1"/>
			<polygon class="st5" points="381.4,150.1 381.5,149.9 375,146.8 374.8,147.2 			"/>
			<polygon class="st5" points="381.8,149.2 381.3,148.3 382.5,147.7 384.8,142.3 378.2,139.4 375,146.8 381.5,149.9 			"/>
			<polygon class="st5" points="381.8,149.2 382.5,147.7 381.3,148.3 			"/>
			<polygon class="st4" points="367.8,132.5 370.7,125.9 369.6,124.1 363.4,124.6 361.2,129.6 			"/>
			<polygon class="st4" points="370,124.1 364.7,121.9 363.7,124.6 370,124.1 			"/>
			<polygon class="st4" points="370.7,125.9 371.2,124.8 369.6,124.1 369.6,124.1 			"/>
			<polygon class="st4" points="369.6,124.1 369.6,124.1 369.6,124.1 			"/>
			
				<rect x="325.5" y="140.4" transform="matrix(0.4009 -0.9161 0.9161 0.4009 65.8496 386.3357)" class="st5" width="5.6" height="4.8"/>
			
				<rect x="324.8" y="155.4" transform="matrix(0.6786 -0.7345 0.7345 0.6786 -11.3613 292.6532)" class="st6" width="7.9" height="7.7"/>
			<polygon class="st9" points="261.1,146.4 251.6,156.7 255.2,159.9 260.6,164.9 261.6,165.9 263.6,163.7 268.2,158.8 271.1,155.6 
							"/>
			<polygon class="st8" points="374.1,162.2 377.4,167.6 380.9,165.5 380.7,165.3 383.3,161.8 381,158 			"/>
			<polygon class="st8" points="380.9,165.5 384.3,163.4 383.3,161.8 380.7,165.3 			"/>
			<polygon class="st8" points="306.1,160.2 307,172.7 310.5,172.5 315.8,168.7 317.7,171.3 316.9,159.4 			"/>
			<polygon class="st8" points="310.5,172.5 317.7,172 317.7,171.3 315.8,168.7 			"/>
			<polygon class="st10" points="301.6,109.8 302,110 301.7,109.7 			"/>
			<polygon class="st10" points="303.2,106.2 301.7,109.7 302,110 308.3,112.7 311.6,105 307.3,103.1 307.8,104.1 			"/>
			<polygon class="st10" points="303.2,106.2 307.8,104.1 307.3,103.1 305,102.1 			"/>
			
				<rect x="358.4" y="139.3" transform="matrix(0.7253 -0.6884 0.6884 0.7253 1.0811 287.8209)" class="st10" width="5.6" height="6.5"/>
			<polygon class="st12" points="286,156.7 285.7,157.1 291.9,162.8 292.8,161.6 			"/>
			<polygon class="st12" points="281.8,162.5 288.6,167.5 291.9,162.8 285.7,157.1 			"/>
			<polygon class="st12" points="372.6,181.7 371.8,176.2 370.6,176.4 359.4,178.1 359.9,181.9 360.4,184.8 360.9,188.7 
				363.7,188.3 365.5,188 373.4,186.9 			"/>
			<polygon class="st9" points="346.1,170.5 337.8,172.9 339.1,177.1 346.4,171.7 			"/>
			<polygon class="st9" points="346.4,171.7 339.1,177.1 339.7,179.5 342.7,179.4 342.7,180.7 348.6,178.9 			"/>
			<polygon class="st9" points="339.7,179.5 340.3,181.4 342.7,180.7 342.7,179.4 			"/>
			<polygon class="st11" points="249,94.4 258.7,104.7 252.1,111.2 			"/>
			<polygon class="st11" points="238.6,123.7 256.4,131.3 250.1,142.4 			"/>
			<polygon class="st11" points="237.5,154.6 244.9,163.4 245.4,168.1 241.2,171.1 			"/>
			<g class="st1">
				<path class="st9" d="M402.2,161.8l-5.5-4.2c0.1-0.5,0.2-1.1,0.2-1.6l3.4-1.9l-3.1-5.5c-0.1-1.2-0.2-2.4-0.4-3.6l3.9-8.3
					l-5.1-2.4l1.6-9.2l-10.2-1.8c-0.6-0.8-1.3-1.5-2-2.2l-4.4-7.9l-3.1,1.8c-1.4-0.9-3-1.8-4.5-2.5l0-0.2
					c-23.3,37.8-76.9,44.2-131.6,38.7l-3.8,3.7l3.7,16.5l4.3-3l3.1,0.8l1.6,7.4l14.2-3.1l1.8,4l5.6-2.5l1.9,0.5l8.3,7.6l4.2-4.5
					l6.2,1.5l1.1,5l10.1-2.2l4.7,1.2l4.6,6.6l5.6-4l0.2,0l2.2,5l6.4-2.9l1.1,0.3l0.1,4.6l8.8-0.2l4.9,6.6l6.7-4.9l5.9,4.7l4.2-5.3
					l0,2.6l15.8-0.2l-0.1-3.8l4,1.8l3.8-8.5l12.6-6.7l-2.7-5.1L402.2,161.8z M373.8,125l-0.5-7.1l-0.4,0l-5.3,2.8l0,0.1l5.3-2.8h0.4
					L373.8,125L373.8,125z"/>
			</g>
		</g>
	</g>
	
		<rect x="187.7" y="204.3" transform="matrix(0.8098 -0.5867 0.5867 0.8098 -87.2479 154.6888)" class="st6" width="14.5" height="15.2"/>
	
		<rect x="215" y="190.8" transform="matrix(0.2643 -0.9644 0.9644 0.2643 -27.2249 360.8281)" class="st9" width="15.8" height="14.9"/>
	
		<rect x="201.6" y="241" transform="matrix(0.4282 -0.9037 0.9037 0.4282 -104.7233 328.6137)" class="st9" width="11.5" height="12.1"/>
	
		<rect x="182.1" y="182.5" transform="matrix(0.9893 -0.146 0.146 0.9893 -25.2219 29.1322)" class="st6" width="7.5" height="7.9"/>
	
		<rect x="216.2" y="218.7" transform="matrix(0.9893 -0.1458 0.1458 0.9893 -30.1137 34.4444)" class="st10" width="7.5" height="7.9"/>
	
		<rect x="222.4" y="189.4" transform="matrix(0.4282 -0.9037 0.9037 0.4282 -46.1146 317.9352)" class="st6" width="11.5" height="12.1"/>
	<g class="st13">
		<path class="st14" d="M395.7,428.4c13.2-3.9,22.5-8.4,26.3-13.3c12.3-15.5-31-27.3-95.3-28.1c-64.3-0.8-132.8,10-155.9,25.9
			c-7.2,5-8.3,9.7-4.2,13.9l0,0l0,0l0,0L115.1,459c0,0,10.7,32,94.2,32.8c47.5,0.5,93.1-6.2,110.3-14.5l0.1,0l0.2-0.1
			c1.7-0.9,3.1-1.7,4.3-2.6L395.7,428.4z"/>
	</g>
	<g>
		<ellipse class="st0" cx="205.3" cy="452.2" rx="91.1" ry="37.9"/>
		<polygon class="st0" points="333.5,342.8 294.3,460.4 202,484.2 200.3,359.4 		"/>
		<polygon class="st0" points="77.1,342.8 116.2,460.4 208.1,484.2 209.8,359.4 		"/>
		<path class="st0" d="M344.6,332.3c0-32-62.4-54.9-139.3-54.9c-76.9,0-139.3,22.9-139.3,54.9c0,32,62.4,57.9,139.3,57.9
			C282.2,390.2,344.6,364.3,344.6,332.3z"/>
		<ellipse class="st15" cx="205" cy="328.6" rx="119.1" ry="39"/>
		<g>
			<path class="st16" d="M283,322.3c-8-14.5-24.4-11.8-24.4-11.8s-2.2-11.2-14.8-11.3c-6.2-4.8-12.2-1.3-12.2-1.3
				c-10.9-4.6-19.6,0.9-19.6,0.9c-9.3-6.7-18.3-0.9-18.3-0.9c-34.8-7.8-50.1,16.1-50.1,16.1c-10.9-0.4-16.5,8.3-16.5,8.3
				c-17,2.9-20.9,18.7-20.9,18.7l-6.4,6.8c20.3,12,59.4,20.2,104.4,20.2c45.3,0,84.6-8.3,104.8-20.4l-4.2-4.8
				C301.4,320.8,283,322.3,283,322.3z"/>
		</g>
		<path class="st0" d="M199.2,284.6c0,0,50.8-6.4,85,10.7C284.3,295.3,246.8,285.1,199.2,284.6z"/>
		<path class="st0" d="M121.5,364.1c0,0,40.9,15.7,103.6,10.7C225.1,374.8,166.4,373.4,121.5,364.1z"/>
		<circle class="st17" cx="169.6" cy="314.4" r="9.8"/>
		<circle class="st17" cx="205.7" cy="343.1" r="9.8"/>
		<circle class="st17" cx="259.8" cy="327.5" r="12.3"/>
		<circle class="st18" cx="122.9" cy="339.8" r="9.8"/>
		<circle class="st17" cx="199.8" cy="305.6" r="5.5"/>
		<circle class="st18" cx="219.2" cy="306.2" r="7"/>
		<circle class="st18" cx="137.9" cy="323.2" r="5.1"/>
		<circle class="st18" cx="235.8" cy="304" r="3.9"/>
		<circle class="st16" cx="213.9" cy="348.8" r="9.8"/>
		<circle class="st16" cx="167.2" cy="327.5" r="13.7"/>
		<circle class="st16" cx="266.3" cy="333.3" r="13.7"/>
		<circle class="st16" cx="254.9" cy="338.2" r="13.7"/>
		<circle class="st16" cx="224.5" cy="312.8" r="9.8"/>
		<circle class="st18" cx="186.6" cy="331" r="5.5"/>
		<circle class="st17" cx="171.9" cy="342.5" r="3.9"/>
		<circle class="st16" cx="177.6" cy="315.4" r="3.9"/>
		<circle class="st16" cx="202.2" cy="349.9" r="4.6"/>
		<circle class="st16" cx="130.9" cy="344.9" r="4.6"/>
		<g class="st19">
			<path class="st20" d="M204.2,368c45.3,0,84.6-8.3,104.8-20.4l-4.2-4.8c-2.1-13.7-10.1-18.3-15.8-19.8
				c-20.2,38.1-133.7,38.9-188.1,23.7l-1.1,1.1C120.1,359.8,159.2,368,204.2,368z"/>
		</g>
		<path class="st21" d="M208.6,390.2c-1.4,0-2.8,0-4.1,0c-1.5,0-3.1,0-4.6,0c-55.5-0.8-99.3-15.8-117.1-30.3
			c64.7,56.1,198.9,79.6,223.3,64.7l21.7-64.7C304.8,377.5,259.7,389.6,208.6,390.2z"/>
	</g>
	<g>
		<g>
			<path class="st0" d="M177.8,212h-4.9c-0.7,0-1.2-0.8-1.2-1.5c0-0.7,0.6-1.5,1.2-1.5h4.9c0.7,0,1.2,0.8,1.2,1.5
				C179,211.2,178.5,212,177.8,212z M167.2,212h-4.9c-0.7,0-1.2-0.8-1.2-1.5c0-0.7,0.6-1.5,1.2-1.5h4.9c0.7,0,1.2,0.8,1.2,1.5
				C168.4,211.2,167.8,212,167.2,212z M156.5,212h-4.9c-0.7,0-1.2-0.8-1.2-1.5c0-0.7,0.6-1.5,1.2-1.5h4.9c0.7,0,1.2,0.8,1.2,1.5
				C157.7,211.2,157.2,212,156.5,212z M145.9,212h-4.9c-0.7,0-1.2-0.8-1.2-1.5c0-0.7,0.6-1.5,1.2-1.5h4.9c0.7,0,1.2,0.8,1.2,1.5
				C147.1,211.2,146.5,212,145.9,212z"/>
		</g>
	</g>
	<g>
		<g>
			<path class="st0" d="M306,34.5v4.9c0,0.7-0.8,1.2-1.5,1.2c-0.7,0-1.5-0.6-1.5-1.2v-4.9c0-0.7,0.8-1.2,1.5-1.2
				C305.2,33.3,306,33.8,306,34.5z M306,45.2v4.9c0,0.7-0.8,1.2-1.5,1.2c-0.7,0-1.5-0.6-1.5-1.2v-4.9c0-0.7,0.8-1.2,1.5-1.2
				C305.2,43.9,306,44.5,306,45.2z M306,55.8v4.9c0,0.7-0.8,1.2-1.5,1.2c-0.7,0-1.5-0.6-1.5-1.2v-4.9c0-0.7,0.8-1.2,1.5-1.2
				C305.2,54.6,306,55.1,306,55.8z M306,66.5v4.9c0,0.7-0.8,1.2-1.5,1.2c-0.7,0-1.5-0.6-1.5-1.2v-4.9c0-0.7,0.8-1.2,1.5-1.2
				C305.2,65.2,306,65.8,306,66.5z M306,77.1V82c0,0.7-0.8,1.2-1.5,1.2c-0.7,0-1.5-0.6-1.5-1.2v-4.9c0-0.7,0.8-1.2,1.5-1.2
				C305.2,75.9,306,76.4,306,77.1z M306,87.8v4.9c0,0.7-0.8,1.2-1.5,1.2c-0.7,0-1.5-0.6-1.5-1.2v-4.9c0-0.7,0.8-1.2,1.5-1.2
				C305.2,86.5,306,87.1,306,87.8z M306,98.4v4.9c0,0.7-0.8,1.2-1.5,1.2c-0.7,0-1.5-0.6-1.5-1.2v-4.9c0-0.7,0.8-1.2,1.5-1.2
				C305.2,97.2,306,97.7,306,98.4z"/>
		</g>
	</g>
	<text transform="matrix(1 0 0 1 296.6299 27.0356)" class="st0 st22 st23">3</text>
	<text transform="matrix(1 0 0 1 123.7275 217.9653)" class="st0 st22 st23 st24">4</text>
	<text transform="matrix(1 0 0 1 0 342.103)" class="st0 st22 st23 st24">5</text>
	<text transform="matrix(1 0 0 1 195.0195 65.5493)" class="st0 st22 st23">2</text>
	<text transform="matrix(1 0 0 1 455.7568 256.0571)" class="st0 st22 st23">6</text>
	<text transform="matrix(1 0 0 1 163.8809 18.8413)" class="st0 st22 st23">1</text>
	<g>
		<g>
			<path class="st0" d="M154,338h-4.9c-0.7,0-1.2-0.8-1.2-1.5c0-0.7,0.6-1.5,1.2-1.5h4.9c0.7,0,1.2,0.8,1.2,1.5
				C155.3,337.2,154.7,338,154,338z M143.4,338h-4.9c-0.7,0-1.2-0.8-1.2-1.5c0-0.7,0.6-1.5,1.2-1.5h4.9c0.7,0,1.2,0.8,1.2,1.5
				C144.6,337.2,144.1,338,143.4,338z M132.7,338h-4.9c-0.7,0-1.2-0.8-1.2-1.5c0-0.7,0.6-1.5,1.2-1.5h4.9c0.7,0,1.2,0.8,1.2,1.5
				C134,337.2,133.4,338,132.7,338z M122.1,338h-4.9c-0.7,0-1.2-0.8-1.2-1.5c0-0.7,0.6-1.5,1.2-1.5h4.9c0.7,0,1.2,0.8,1.2,1.5
				C123.3,337.2,122.8,338,122.1,338z M111.4,338h-4.9c-0.7,0-1.2-0.8-1.2-1.5c0-0.7,0.6-1.5,1.2-1.5h4.9c0.7,0,1.2,0.8,1.2,1.5
				C112.7,337.2,112.1,338,111.4,338z M100.8,338h-4.9c-0.7,0-1.2-0.8-1.2-1.5c0-0.7,0.6-1.5,1.2-1.5h4.9c0.7,0,1.2,0.8,1.2,1.5
				C102,337.2,101.5,338,100.8,338z M90.1,338h-4.9c-0.7,0-1.2-0.8-1.2-1.5c0-0.7,0.6-1.5,1.2-1.5h4.9c0.7,0,1.2,0.8,1.2,1.5
				C91.4,337.2,90.8,338,90.1,338z M79.5,338h-4.9c-0.7,0-1.2-0.8-1.2-1.5c0-0.7,0.6-1.5,1.2-1.5h4.9c0.7,0,1.2,0.8,1.2,1.5
				C80.7,337.2,80.2,338,79.5,338z M68.8,338h-4.9c-0.7,0-1.2-0.8-1.2-1.5c0-0.7,0.6-1.5,1.2-1.5h4.9c0.7,0,1.2,0.8,1.2,1.5
				C70.1,337.2,69.5,338,68.8,338z M58.2,338h-4.9c-0.7,0-1.2-0.8-1.2-1.5c0-0.7,0.6-1.5,1.2-1.5h4.9c0.7,0,1.2,0.8,1.2,1.5
				C59.4,337.2,58.9,338,58.2,338z M47.5,338h-4.9c-0.7,0-1.2-0.8-1.2-1.5c0-0.7,0.6-1.5,1.2-1.5h4.9c0.7,0,1.2,0.8,1.2,1.5
				C48.7,337.2,48.2,338,47.5,338z M36.9,338H32c-0.7,0-1.2-0.8-1.2-1.5c0-0.7,0.6-1.5,1.2-1.5h4.9c0.7,0,1.2,0.8,1.2,1.5
				C38.1,337.2,37.5,338,36.9,338z M26.2,338h-4.9c-0.7,0-1.2-0.8-1.2-1.5c0-0.7,0.6-1.5,1.2-1.5h4.9c0.7,0,1.2,0.8,1.2,1.5
				C27.4,337.2,26.9,338,26.2,338z"/>
		</g>
	</g>
	<g>
		<g>
			<path class="st0" d="M171.5,96.8c-0.7,0-1.5-0.6-1.5-1.2v-4.9c0-0.7,0.8-1.2,1.5-1.2c0.7,0,1.5,0.6,1.5,1.2v4.9
				C173,96.2,172.2,96.8,171.5,96.8z M171.5,86.1c-0.7,0-1.5-0.6-1.5-1.2V80c0-0.7,0.8-1.2,1.5-1.2c0.7,0,1.5,0.6,1.5,1.2v4.9
				C173,85.6,172.2,86.1,171.5,86.1z M171.5,75.5c-0.7,0-1.5-0.6-1.5-1.2v-4.9c0-0.7,0.8-1.2,1.5-1.2c0.7,0,1.5,0.6,1.5,1.2v4.9
				C173,74.9,172.2,75.5,171.5,75.5z M171.5,64.8c-0.7,0-1.5-0.6-1.5-1.2v-4.9c0-0.7,0.8-1.2,1.5-1.2c0.7,0,1.5,0.6,1.5,1.2v4.9
				C173,64.3,172.2,64.8,171.5,64.8z M171.5,54.2c-0.7,0-1.5-0.6-1.5-1.2V48c0-0.7,0.8-1.2,1.5-1.2c0.7,0,1.5,0.6,1.5,1.2v4.9
				C173,53.6,172.2,54.2,171.5,54.2z M171.5,43.5c-0.7,0-1.5-0.6-1.5-1.2v-4.9c0-0.7,0.8-1.2,1.5-1.2c0.7,0,1.5,0.6,1.5,1.2v4.9
				C173,43,172.2,43.5,171.5,43.5z M171.5,32.9c-0.7,0-1.5-0.6-1.5-1.2v-4.9c0-0.7,0.8-1.2,1.5-1.2c0.7,0,1.5,0.6,1.5,1.2v4.9
				C173,32.3,172.2,32.9,171.5,32.9z"/>
		</g>
	</g>
	<g>
		<line class="st25" x1="251" y1="73.5" x2="151" y2="73.5"/>
		<line class="st25" x1="150.5" y1="68" x2="150.5" y2="79"/>
		<line class="st25" x1="252.5" y1="68" x2="252.5" y2="79"/>
	</g>
	<g>
		<line class="st25" x1="444.5" y1="486" x2="444.5" y2="28"/>
		<line class="st25" x1="445" y1="26.5" x2="425" y2="26.5"/>
		<line class="st25" x1="445" y1="485.5" x2="425" y2="485.5"/>
	</g>
</g>
</svg>
