<?xml version="1.0" encoding="utf-8"?>
<!-- Generator: Adobe Illustrator 20.0.0, SVG Export Plug-In . SVG Version: 6.00 Build 0)  -->
<svg version="1.1" id="Layer_1" xmlns="http://www.w3.org/2000/svg" xmlns:xlink="http://www.w3.org/1999/xlink" x="0px" y="0px"
	 viewBox="0 0 732 844.9" style="enable-background:new 0 0 732 844.9;" xml:space="preserve">
<style type="text/css">
	.st0{fill:#FFFFFF;}
	.st1{opacity:0.25;}
	.st2{fill:#FFE000;}
	.st3{fill:#E08F00;}
	.st4{fill:#AFCE4E;}
	.st5{fill:#FFC757;}
	.st6{fill:#CE7500;}
	.st7{fill:#FFE2B0;}
	.st8{fill:#AD5E00;}
	.st9{fill:#773B00;}
	.st10{fill:#5F8223;}
	.st11{opacity:0.6;fill:#773B00;}
	.st12{fill:#435B15;}
	.st13{opacity:0.1;}
	.st14{fill:#0F1616;}
	.st15{opacity:0.15;fill:#0F1616;}
	.st16{fill:#ED4F00;}
	.st17{opacity:0.75;fill:#FEFEFD;}
	.st18{opacity:0.25;fill:#FEFEFD;}
	.st19{opacity:0.5;}
	.st20{fill:#631E00;}
	.st21{opacity:8.000000e-02;fill:#0F1616;}
	.st22{font-family:'OpenSans-SemiboldItalic';}
	.st23{font-size:30px;}
	.st24{letter-spacing:-1;}
	.st25{font-family:'OpenSans-ExtraboldItalic';}
	.st26{font-family:'OpenSans-Extrabold';}
	.st27{font-size:26.8318px;}
	.st28{fill:none;stroke:#FFFFFF;stroke-width:3;stroke-linecap:round;stroke-miterlimit:10;}
</style>
<g>
	<g>
		<path class="st0" d="M258.6,196.8c0,0,27.1,8,111.3,7.2c29.5-0.3,63-7.6,109-8.5l40.3,84.5c0,0-129.7-1.1-299.3,4.1L258.6,196.8z"
			/>
		<g class="st1">
			<path class="st2" d="M520.3,279.9L480,195.7c-0.2-0.1-0.4-0.1-0.5-0.2c-1.9,0.2-3.7,0.4-5.5,0.6
				c-54.1,59.5-169.8,61.2-252.5,55.4l-0.3,29.9l2.3,2.6C369.2,279.6,369.2,278.7,520.3,279.9z"/>
		</g>
	</g>
	<g>
		<polygon class="st3" points="223.6,209.2 226.2,203.1 220.9,204.4 223.8,204.5 		"/>
		<polygon class="st3" points="222.4,212 223.5,212.4 223.6,209.2 		"/>
		<polygon class="st3" points="190.5,301.5 188.5,302.9 192.2,305.4 		"/>
		<polygon class="st3" points="154.2,276.3 153.7,276 153.4,277.6 		"/>
		<polygon class="st3" points="162.2,281.7 160.6,280.6 159.9,281.7 		"/>
		<polygon class="st3" points="152.6,281.9 153.5,281.8 152.7,281.3 		"/>
		<path class="st3" d="M171.3,289.4l4.2,2.5l-0.2-10.5l-13.1,0.2l2.4,1.6l-7.9,11.8c0.6,0.8,1.3,1.6,2,2.4l9.5-2.8L171.3,289.4z"/>
		<polygon class="st3" points="175.4,306 175.7,306 175.5,297.3 173.7,300.3 		"/>
		<path class="st3" d="M175.4,306l-7.4,0.1c1.9,1.3,3.8,2.5,5.8,3.6l1.9-2.8L175.4,306z"/>
		<path class="st3" d="M173.7,300.3l-0.9,1.6l-6.6-4l1.9-3.2l-9.5,2.8c2.8,3.3,6,6.2,9.4,8.6l7.4-0.1L173.7,300.3z"/>
		<path class="st3" d="M176.9,311.3c-1.1-0.5-2.1-1-3.1-1.5l-2.4,3.4l0.7,0.5l5.1-1.5L176.9,311.3z"/>
		<path class="st3" d="M173.8,309.8c1,0.5,2.1,1.1,3.1,1.5l-1.3-4.3L173.8,309.8z"/>
		<path class="st3" d="M150.4,242.8c0.6-1.5,1.4-3,2.1-4.4l-3.7-7.3l-6.6,0.3l0.5,11.3l2.6-3.6L150.4,242.8z"/>
		<path class="st3" d="M161.2,249.9l-0.4-9.9l-5.9,3l-2.3-4.6c-0.8,1.4-1.5,2.9-2.1,4.4l9.9,7.1L161.2,249.9z"/>
		<path class="st3" d="M162,251.2l-1.7-1.2l-3.5,0.1l1.7,2.9l-6,3.6l-3.1-5.2l1.8-1.1l-3.5,0.2c-1,3.9-1.6,7.8-1.7,11.9l6.8,1.3
			L162,251.2z"/>
		<path class="st3" d="M155.5,247.8l1.3,2.3l3.5-0.1l-9.9-7.1c-1.1,2.5-2,5-2.7,7.7l3.5-0.2L155.5,247.8z"/>
		<polygon class="st3" points="180.4,232.6 170.8,230.6 186.6,238.8 189.7,232.8 182.5,223 		"/>
		<polygon class="st3" points="170.1,230.4 170.8,230.6 170,230.1 		"/>
		<path class="st3" d="M157.7,230.8l-8.9,0.4l3.7,7.3C154.1,235.7,155.8,233.2,157.7,230.8z"/>
		<path class="st3" d="M160.8,240l-0.4-9.4l-2.6,0.1c-1.9,2.4-3.7,5-5.2,7.7l2.3,4.6L160.8,240z"/>
		<path class="st3" d="M327.4,258.6l3.7-6.3l-13.5-14.2l-8,12.2l-14.7-9.6l10.3-15.9l7.8,5.1l2.5-12.5l-7.4-8.2l-8.2,7.3l-9.9-10.2
			l2.7-2.6l6.1-5.9l1.2-1.2l1.4,1.5l4.9-7.2l-6.2-4.2l-2-1.3l-7.9-5.3l-5.8,8.6l-8.4,2l-13.5-1.1l-0.4,4.5l-2.3,0.6l-5.2-5.3
			l-9.1,8.8l-5.7,1.4l-10.4-4.5l-3.4,7.8l-2.6,6.1l-0.1,3.3l-1.1-0.5l1.2-2.8l0.2-4.6l-2.9-0.1l-18.9-0.7l-0.2,5.4l-4.6,1.1
			l-2.3-3.1l-5.3,3.8l-12.7-6.6l-4.2,8.1l-7.2-1.6l-1.6,7.3l0-0.1l-17.2,8.8l2.2,4.3l8.9-0.4l2.6-0.1l0.4,9.4l0.4,9.9l-0.9,0
			l1.7,1.2l-9.1,12.6l-6.8-1.3c0.1-4.1,0.7-8.1,1.7-11.9c0.7-2.6,1.6-5.2,2.7-7.7l-5.1-3.7l-2.6,3.6l-10.2,14.1l5.7,4.1l-3.7,18.8
			l9.9,2l-3.7,5.5l8.7,5.8l0.2,13.4l6.9-0.1l3.2,10.9l12.4-3.6l-0.7-0.5l2.4-3.4c-2-1.1-4-2.3-5.8-3.6c-3.5-2.5-6.6-5.4-9.4-8.6
			c-0.7-0.8-1.3-1.6-2-2.4l7.9-11.8l-2.4-1.6l-2.2,0l-1.8,2.9l-4.7-2.8l-0.9,0l0.1-0.5l-1.1-0.7l1.8-3.1l0.3-1.6l0.5,0.3l2.5-4.1
			l6.6,4l-2.7,4.5l1.6,1l13.1-0.2l0.2,10.5l2.4,1.5l-2.3,3.9l0.2,8.7l-0.3,0l0.3,1l1.3,4.3l0.3,0.9l-5.1,1.5l15.2,10.4l4.8-7.1
			l2.7,3.7l6.8-5c3-0.2,6-0.6,8.9-1.4l0.9-0.2l11.3,3.8l2.4-7.1l10.1-2.4l8.7,3.7l2.8-6.5l4.9-1.2l7.9,5.3l5.8-8.6l1.8-0.4l17.1,1.4
			l0.5-5.7l8.5-2.1l4.9,2.5l2.2-4.2l7.5-1.8l2,3.6l12.8-7.2l7.7-1.9l-0.4-0.9l-5.4-12.5l-1.1-2.6l-2.3,0.2l-0.7-10.3L327.4,258.6z
			 M305.1,267.4l6.6,4l-1,1.6l-4,6.6l-0.2,0.3l-3.9-2.3l-0.1-0.1l-2.6-1.6L305.1,267.4z M170.8,230.6l-0.7-0.2l-0.1-0.3L170.8,230.6
			l9.6,2.1l2.1-9.7l7.2,9.8l-3.1,6L170.8,230.6z M209.9,224.6l5,1.4l-4.5,16.7l-16.2-4.4l2.8-10.3l1.7-6.4l2.5,0.7l2.7,0.7
			L209.9,224.6z M210.7,263.4l-0.7-10.3l8.8-0.6l0.7,10.3L210.7,263.4z M221.3,276.7l-3,11.3l-8.5-2.3l3-11.3L221.3,276.7z
			 M233.6,287.9l-0.1-0.8l8.8-0.6l0.4,5.3l0.3,4.9l-8.8,0.6L233.6,287.9z M249.7,206.6l6-3l2.5,5.1l-6,3L249.7,206.6z M275.2,246
			l5.1-8.5l6.6,4l-5.1,8.5L275.2,246z M285.3,264.6l-4.9,2.9l-3.4-5.8l4.9-2.9L285.3,264.6z M280.5,222.5l-8.5-1.8l1.7-7.9l8.5,1.8
			L280.5,222.5z M258.5,225.2l6.7,6.9l-6.7,6.5l-6.7-6.9L258.5,225.2z M266.6,250.1l-7.3,13.7l-15-7.9l7.3-13.7L266.6,250.1z
			 M266.8,289.4l-0.7-0.8l-6.8-7l7.6-7.3l7.5,7.8l-0.8,0.8L266.8,289.4z M239.8,217.4l1,0.7l6.3,4.4l-6,8.5l-7.3-5.1l4.9-7
			L239.8,217.4z M239.6,264.8l-2.5,9.4l-9.1-2.5l2.5-9.4L239.6,264.8z M166.5,235.6l2.3,0.3l10.4,1.5l-1.5,10.9l-12.8-1.8l1.3-9.3
			L166.5,235.6z M170.9,275.5l3.9-18.7l17.1,3.6l-3.9,18.7L170.9,275.5z M194.4,306.9l-1.3,0.6l-0.9-2l-3.7-2.5l2-1.4l-2.2-5.1
			l12.9-5.6l4.4,10l0.5,1.1l-0.8,0.3l-0.2,0.1L194.4,306.9z"/>
		<polygon class="st4" points="165,246.5 177.7,248.3 179.3,237.4 168.8,235.9 166.3,237.2 		"/>
		<polygon class="st4" points="166.3,237.2 168.8,235.9 166.5,235.6 		"/>
		<polygon class="st5" points="149.4,251.4 152.5,256.6 158.5,253 156.8,250.1 151.2,250.4 		"/>
		<polygon class="st5" points="151.2,250.4 156.8,250.1 155.5,247.8 		"/>
		<polygon class="st5" points="241.1,231.1 247.1,222.6 240.8,218.1 240.2,219.6 238.7,218.9 233.8,225.9 		"/>
		<polygon class="st5" points="240.8,218.1 239.8,217.4 238.7,218.9 240.2,219.6 		"/>
		<polygon class="st5" points="210.5,242.6 215,225.9 209.9,224.6 202.1,224.3 197,227.9 194.3,238.2 		"/>
		<polygon class="st5" points="201.1,224.2 201.2,222.2 198.8,221.6 197,227.9 202.1,224.3 		"/>
		<polygon class="st5" points="209.9,224.6 203.9,222.9 202.1,224.3 		"/>
		<polygon class="st5" points="202.1,224.3 203.9,222.9 201.2,222.2 201.1,224.2 		"/>
		
			<rect x="273.1" y="213.3" transform="matrix(0.2127 -0.9771 0.9771 0.2127 5.508 442.1931)" class="st4" width="8.1" height="8.7"/>
		<polygon class="st6" points="295,240.8 309.7,250.4 317.7,238.2 312.6,232.9 313.1,230.1 305.3,225 		"/>
		
			<rect x="247.7" y="244.6" transform="matrix(0.4682 -0.8836 0.8836 0.4682 -87.7218 360.331)" class="st6" width="15.6" height="16.9"/>
		
			<rect x="171.9" y="259.2" transform="matrix(0.2049 -0.9788 0.9788 0.2049 -118.0405 390.6169)" class="st6" width="19.1" height="17.5"/>
		
			<rect x="250.7" y="204.9" transform="matrix(0.8967 -0.4426 0.4426 0.8967 -65.7096 133.8923)" class="st7" width="6.7" height="5.7"/>
		<polygon class="st5" points="301.6,198.2 300.2,196.8 299,197.9 300.2,200.2 		"/>
		
			<rect x="276.1" y="239.9" transform="matrix(0.5156 -0.8568 0.8568 0.5156 -72.7165 358.8967)" class="st8" width="9.9" height="7.7"/>
		
			<rect x="229" y="263.5" transform="matrix(0.2608 -0.9654 0.9654 0.2608 -86.1161 423.9712)" class="st6" width="9.7" height="9.4"/>
		
			<rect x="253.8" y="227.1" transform="matrix(0.719 -0.6951 0.6951 0.719 -88.5816 244.8718)" class="st6" width="9.4" height="9.6"/>
		<polygon class="st8" points="321.1,269.4 323.4,269.2 322.5,267.1 327.4,258.6 320.4,259.1 		"/>
		<polygon class="st9" points="305.1,267.4 300,275.8 302.7,277.4 302.7,277.5 310.7,273 311.7,271.3 		"/>
		<polygon class="st9" points="306.8,279.5 310.7,273 302.7,277.5 		"/>
		<polygon class="st9" points="302.7,277.4 302.7,277.5 302.7,277.5 		"/>
		<polygon class="st9" points="302.7,277.5 306.6,279.8 306.8,279.5 302.7,277.5 		"/>
		<polygon class="st8" points="188.3,296.4 190.5,301.5 199.8,294.7 205.2,302 205.6,300.8 201.2,290.7 		"/>
		<polygon class="st8" points="199.8,294.7 190.5,301.5 192.2,305.4 194.4,306.9 205.1,302.2 205.2,302 		"/>
		<polygon class="st8" points="205.3,302.2 206,301.8 205.6,300.8 205.2,302 		"/>
		<polygon class="st8" points="205.1,302.2 205.3,302.2 205.2,302 		"/>
		<polygon class="st8" points="193.1,307.5 194.4,306.9 192.2,305.4 		"/>
		
			<rect x="209.7" y="276.7" transform="matrix(0.2606 -0.9654 0.9654 0.2606 -112.0862 415.9629)" class="st8" width="11.7" height="8.8"/>
		<polygon class="st9" points="177.9,293.4 175.4,292 175.5,297.3 		"/>
		<polygon class="st9" points="168.1,294.7 171.8,293.7 173.7,300.3 175.5,297.3 175.4,292 171.3,289.4 		"/>
		<polygon class="st9" points="168.1,294.7 166.2,297.9 172.8,301.9 173.7,300.3 171.8,293.7 		"/>
		<polygon class="st9" points="233.5,287.1 233.6,287.9 242.7,291.8 242.3,286.5 		"/>
		<polygon class="st9" points="234.3,297.3 243,296.7 242.7,291.8 233.6,287.9 		"/>
		<polygon class="st8" points="266.8,274.4 259.2,281.7 266,288.7 266.5,282.4 273.5,282.9 274.3,282.1 		"/>
		<polygon class="st8" points="266,288.7 266.8,289.4 273.5,282.9 266.5,282.4 		"/>
		
			<rect x="210.3" y="252.8" transform="matrix(0.9976 -6.955675e-02 6.955675e-02 0.9976 -17.4198 15.5618)" class="st10" width="8.8" height="10.3"/>
		<polygon class="st10" points="163.3,276.2 156.7,272.2 154.2,276.3 160.6,280.6 		"/>
		<polygon class="st10" points="152.7,281.3 153.5,281.8 159.9,281.7 160.6,280.6 154.2,276.3 153.4,277.6 		"/>
		<polygon class="st10" points="151.6,280.7 152.7,281.3 153.4,277.6 		"/>
		<polygon class="st10" points="158.2,284.6 159.9,281.7 153.5,281.8 		"/>
		
			<rect x="278.3" y="259.8" transform="matrix(0.8601 -0.5102 0.5102 0.8601 -94.9219 180.2504)" class="st10" width="5.7" height="6.7"/>
		<polygon class="st5" points="300.2,200.2 299,197.9 292.9,203.8 290.2,206.4 300.1,216.6 308.4,209.4 		"/>
		<polygon class="st11" points="315.6,217.5 298,225 312.6,232.9 		"/>
		<polygon class="st11" points="331.1,252.4 309.1,259.3 322.5,267.1 		"/>
		<polygon class="st11" points="306.4,191 297.6,191.3 300.2,200.2 		"/>
		<g class="st1">
			<polygon class="st5" points="284.3,302 284.7,296.3 284.3,302 			"/>
			<polygon class="st5" points="222.9,318 222.9,318 225.3,310.8 225.3,310.8 			"/>
			<polygon class="st5" points="244,312.1 244,312.1 235.3,308.4 			"/>
			<polygon class="st5" points="309.8,294.4 322.6,287.1 309.8,294.4 			"/>
			<polygon class="st5" points="298.1,297.2 300.3,293 300.3,293 			"/>
			<polygon class="st5" points="293.2,294.3 298.1,296.8 293.2,294.3 			"/>
			<polygon class="st9" points="244,312.1 244,312.1 246.8,305.6 246.8,305.6 			"/>
			<polygon class="st9" points="284.3,302.1 284.3,302.1 267.2,300.6 			"/>
			<polygon class="st9" points="309,290.7 310.4,294.8 310.8,294.8 309,290.7 			"/>
			<polygon class="st9" points="222.9,318 222.9,318 211.6,314.2 			"/>
			<path class="st9" d="M324.5,271.9l-1.1-2.6l-0.5-1.3c-61.9,24.3-130.8,36.8-165.3,41.9l2.2,7.4l12.4-3.6l15.2,10.4l4.8-7.1
				l2.7,3.7l6.8-5c3-0.2,6-0.6,8.9-1.4l0.9-0.2l11.3,3.8l2.4-7.1l0,0l10.1-2.4l8.7,3.7l2.8-6.5l0,0l4.9-1.2l7.9,5.3l5.8-8.6l1.8-0.4
				l17.1,1.4l0.5-5.7l8.5-2.1l0,0l4.9,2.8l2.2-4l0.6,0l8.1-2.3v0l1.4,3.6l12.5-7.2l7.6-1.9l-0.5-0.9L324.5,271.9z"/>
		</g>
	</g>
	<g>
		<polygon class="st3" points="463.5,188 457.5,186.5 459.2,188.9 		"/>
		<polygon class="st3" points="493.5,195.4 489.1,194.4 490.9,198.3 		"/>
		<polygon class="st3" points="479.6,192 476.1,191.1 476.6,193.4 		"/>
		<polygon class="st3" points="531.9,205 528.8,204.2 529.4,206.8 		"/>
		<polygon class="st3" points="515,200.8 511.1,199.8 512.7,201.3 		"/>
		<polygon class="st3" points="441.1,196.8 440.4,195.8 440.4,196.5 		"/>
		<polygon class="st3" points="540.7,222.4 541,222.2 540.5,221.9 		"/>
		<polygon class="st3" points="527.4,198 515,200.8 528.8,204.2 		"/>
		<polygon class="st3" points="517.5,205.6 512.3,211.2 513.9,218 530.2,214.3 526.3,208.9 529.4,206.8 528.8,204.2 515,200.8 
			512.7,201.3 		"/>
		<polygon class="st3" points="529.4,206.8 526.3,208.9 530.2,214.3 531,214.2 		"/>
		<polygon class="st3" points="499.3,189 493.5,195.4 511.1,199.8 		"/>
		<polygon class="st3" points="494.1,205.2 499.3,207.5 495.2,217 487.6,213.6 499.8,224.9 512.3,211.2 510.3,201.8 512.7,201.3 
			511.1,199.8 493.5,195.4 490.9,198.3 		"/>
		<polygon class="st3" points="489.1,208.9 484.7,210.9 487.2,213.3 		"/>
		<polygon class="st3" points="512.7,201.3 510.3,201.8 512.3,211.2 517.5,205.6 		"/>
		<polygon class="st3" points="486.6,188.8 479.6,192 489.1,194.4 		"/>
		<polygon class="st3" points="478.8,203.3 473.7,204.4 478.1,214 484.7,210.9 481.7,208.3 490.9,198.3 489.1,194.4 479.6,192 
			476.6,193.4 		"/>
		<polygon class="st3" points="491.2,204 494.1,205.2 490.9,198.3 481.7,208.3 484.7,210.9 489.1,208.9 		"/>
		<polygon class="st3" points="474.9,185.5 463.5,188 476.1,191.1 		"/>
		<polygon class="st3" points="463.8,195.5 458.2,199.4 459.9,207.3 466.8,205.9 467.5,205.2 467.9,205.6 473.7,204.4 470,196.4 
			476.6,193.4 476.1,191.1 463.5,188 459.2,188.9 		"/>
		<polygon class="st3" points="459.2,188.9 456.1,189.6 458.2,199.4 463.8,195.5 		"/>
		<polygon class="st3" points="476.6,193.4 470,196.4 473.7,204.4 478.8,203.3 		"/>
		<polygon class="st3" points="473.9,290.5 476.1,288.1 473.5,288.7 		"/>
		<polygon class="st3" points="441.3,290.1 441.6,290.7 442.7,290.5 		"/>
		<polygon class="st3" points="584.6,262.3 585.8,262.9 585,261.5 		"/>
		<path class="st3" d="M567.6,226.4L567.6,226.4l7-3.9l5-2.8c-1.8-1.1-3.6-2.2-5.5-3.1l-0.3-4.3l-9.4,0.8c0,0-0.1,0-0.1,0l-13-8.7
			l-2.9,4.3l-7.2-10.2l-9.3,6.6l-2.5,1.8l1.6,7.4l-0.8,0.2l2.5,3.5l6.1-1.8l1.4,4.8l0.3,1l0.4,0.3l17.1,11.4l1.3-1.9l3.1-0.3
			l1.5-3.3l6.1,2.6l0-0.1h0l5.2-0.3l-0.6-7.9L567.6,226.4z"/>
		<path class="st3" d="M572.5,291.8l-1.3,2.8l1.4-0.2l1,6.7l2.6,0l0.1,8.5c1.6-0.9,3.1-1.8,4.6-2.9l-7.7-14.5L572.5,291.8z"/>
		<path class="st3" d="M609.7,276.9l-6.7-5.1c0.1-0.6,0.2-1.3,0.3-1.9l4.1-2.4l-3.8-6.7c-0.1-1.5-0.2-2.9-0.4-4.4l4.8-10.2l-6.3-3
			l2-11.2l-12.4-2.2c-0.8-0.9-1.6-1.8-2.5-2.7l-5.4-9.7l-3.8,2.1l-5,2.8l0.6,7.9l-5.1,0.4l1.9,0.8l-0.6,1.4l5.7,10.2l4.9-2.7
			l-8,16.8l2.7,1.3l3.9-9l8.1,3.5l-2.8,6.5l-0.8,1.9l0.8,1.4l5,8.8l-4,5.2l1.2,1.9l-4.2,2.5l2.3,1.7l-13.7,7.2l1,1.9l7.7,14.5
			c-1.5,1-3,2-4.6,2.9l0.1,5.1l4.9,2.2l4.6-10.3l15.4-8.1l-3.3-6.2L609.7,276.9z"/>
		<polygon class="st3" points="528.7,298.5 524.2,298.6 525.3,301 		"/>
		<polygon class="st3" points="528.7,298.5 533.6,298.4 532.8,295.5 		"/>
		<polygon class="st3" points="557,306.8 557,303.5 551.5,299.1 		"/>
		<polygon class="st3" points="557,301.3 557,303.5 558.8,304.9 558.2,301.3 		"/>
		<path class="st3" d="M570.8,312.1l5.6,2.5l-0.1-5.1C574.6,310.5,572.7,311.4,570.8,312.1z"/>
		<path class="st3" d="M573.7,301.1l0.9,6.3l-9.6,1.4l-0.3,0.6l6.1,2.7c1.9-0.8,3.8-1.6,5.6-2.6l-0.1-8.5L573.7,301.1z"/>
		<polygon class="st3" points="557.7,307.7 557,306.8 557.1,308.2 		"/>
		<polygon class="st7" points="466.6,223 475.9,213.9 467.9,205.6 466.8,205.9 458.1,214.3 		"/>
		<polygon class="st7" points="467.5,205.2 466.8,205.9 467.9,205.6 		"/>
		
			<rect x="465.7" y="236.7" transform="matrix(0.6908 -0.723 0.723 0.6908 -30.5203 417.4753)" class="st6" width="14.4" height="15.5"/>
		
			<rect x="533.2" y="255.3" transform="matrix(0.7487 -0.6629 0.6629 0.7487 -38.0637 424.5353)" class="st6" width="15.5" height="14.4"/>
		<path class="st3" d="M583.8,281.3l-4.3,2.6l-4-6.6l8.5-5.1l2.9,4.7l4-5.2l-5-8.8l-1.2-0.6l-0.1,0.2l-8.1-3.5l0.2-0.4l-2.7-1.3
			l8-16.8l-4.9,2.7l-5.7-10.2l-3.5,8l-8.1-3.5l2.7-6.1l-3.1,0.3l-1.3,1.9L541,222.2l-0.3,0.2l2.1,7.3l-13.3,3.9l-4-13.7l7.2-2.1
			l-2.5-3.5l-16.3,3.6l-1.5-6.8l-12.5,13.7l-12.2-11.2l-0.5-0.2l0.1-0.2l-2.5-2.3l-6.6,3l-4.4-9.6l-5.8,1.2l8,8.3l-9.4,9.1l-8.5-8.7
			l8.7-8.5l-6.9,1.5l-1.7-7.9l-2.1-9.8l3.1-0.7l-1.7-2.4l-4.1-5.9l-5.1,3.6l-7.5-7.1l-17.8,17.5l3.7,20.5l-16.4,15.2l14,22.8
			L408.8,268l4.5,20.1l5.2-3.7l3.8,0.9l1.9,9l17.4-3.7l-0.3-0.6l1.4,0.3l-1.1,0.2l2.2,4.8l6.8-3.1l2.3,0.6l10.1,9.3l5.1-5.5l7.6,1.9
			l1.4,6.1l12.3-2.7l5.7,1.4l5.7,8l6.9-4.9l0.2,0.1l2.7,6.1l7.8-3.5l1.4,0.3l0.1,5.6l10.8-0.2l5.9,8.1l8.2-6l7.1,5.7l5.2-6.5l0,3.2
			l19.3-0.3l-0.1-4.6l-5.6-2.5l-6.1-2.7l0.3-0.6l-2.1,0.3l-3.4,0.5l-0.7-4.7l-1.8-1.4l0,3.2l0.7,0.9l-0.7,0.5l0-1.4l-5.6-7.6
			l5.5,4.4l0-2.2l1.3,0l-0.7-4.6l13.7-2l1.3-2.8l0.8,0.4l-1-1.9l13.7-7.2L583.8,281.3z M449.3,216.1l5.5,5.8l-4.9,4.7l-5.5-5.8
			L449.3,216.1z M438.5,198.6l1.1-2.5l0.8,0.4l0-0.7l0.7,1l6.6,2.9l-1.8,4l-2.4,5.4l-8.1-3.5L438.5,198.6z M430.8,245.5l-6.9-6.4
			l6.6-7.1l6.9,6.4L430.8,245.5z M446.3,273.2l-5.5,6l-2.4,2.6l-1.3-1.2l-6.6-6.1l-4.3-4l11.6-12.5l12.2,11.2L446.3,273.2z
			 M448.6,258.9l-4.3-8.9l6.9-3.3l4.3,8.9L448.6,258.9z M559.5,248.1l5.5,5.8l-4.9,4.7l-5.5-5.8L559.5,248.1z M542,251.9l9.5,10.8
			L539.9,273l-9.5-10.8L542,251.9z M526.9,273.4l-6.6,7.1l-6.9-6.4l6.6-7.1L526.9,273.4z M518.3,249.4l5.4,2.3L521,258l-5.4-2.3
			L518.3,249.4z M501.6,224.2l14.4,5.9l-4.6,11.2l-14.4-5.9L501.6,224.2z M501.8,250.6l-1,10.2L492,260l1-10.2L501.8,250.6z
			 M472.2,233.9l11.2,10.7l-9.9,10.4l-11.2-10.7L472.2,233.9z M471.2,283.7l-8.4-6l4.8-6.6l0.4-0.5l8.4,6l-1.1,1.5L471.2,283.7z
			 M473.5,288.7l2.6-0.6l-2.2,2.4L473.5,288.7z M497.9,289.9l-4.2,0.3l-1.1-15.3l13.1-0.9l1,14.5l0.1,0.8L497.9,289.9z M537.2,299.9
			l-2.9,0.9l-0.7-2.3l-4.9,0.1l-3.5,2.5l-1.1-2.4l4.5-0.1l4-3l-1.5-5.2l10.1-3l0.5,1.6l2.6,8.8L537.2,299.9z M557.7,286.6l-6.3-11.5
			l8.9-4.9l6.3,11.5L557.7,286.6z"/>
		
			<rect x="500.4" y="225" transform="matrix(0.3802 -0.9249 0.9249 0.3802 98.6144 612.6672)" class="st5" width="12.1" height="15.5"/>
		<polygon class="st5" points="440.5,198.5 438.5,198.6 435.5,205.5 443.6,209.1 445.9,203.6 441.1,196.8 440.4,196.5 		"/>
		<polygon class="st5" points="440.4,196.5 439.6,196.1 438.5,198.6 440.5,198.5 		"/>
		<polygon class="st5" points="447.7,199.6 441.1,196.8 445.9,203.6 		"/>
		<polygon class="st5" points="529.5,233.6 542.8,229.7 540.7,222.4 537.5,224.7 532.7,217.9 525.5,220 		"/>
		<polygon class="st5" points="540.7,222.4 540.5,221.9 539.8,221.5 540.2,220.9 538.8,216.1 532.7,217.9 537.5,224.7 		"/>
		<polygon class="st5" points="540.5,221.9 540.2,220.9 539.8,221.5 		"/>
		
			<rect x="491.8" y="250.9" transform="matrix(9.409878e-02 -0.9956 0.9956 9.409878e-02 195.9812 725.9976)" class="st6" width="10.3" height="8.8"/>
		
			<rect x="446.2" y="217.4" transform="matrix(0.7255 -0.6882 0.6882 0.7255 -28.9248 370.1415)" class="st6" width="6.8" height="7.9"/>
		
			<rect x="553.9" y="271.8" transform="matrix(0.876 -0.4824 0.4824 0.876 -64.939 304.1721)" class="st8" width="10.2" height="13.1"/>
		
			<rect x="425.8" y="234" transform="matrix(0.6787 -0.7344 0.7344 0.6787 -36.963 392.9278)" class="st6" width="9.7" height="9.4"/>
		
			<rect x="446.1" y="247.8" transform="matrix(0.901 -0.4339 0.4339 0.901 -65.1188 220.2791)" class="st8" width="7.7" height="9.9"/>
		<polygon class="st5" points="584.5,262.5 584.6,262.3 576.6,258.6 576.4,259 		"/>
		<polygon class="st5" points="585,261.5 584.3,260.4 585.8,259.6 588.6,253.1 580.5,249.6 576.6,258.6 584.6,262.3 		"/>
		<polygon class="st5" points="585,261.5 585.8,259.6 584.3,260.4 		"/>
		<polygon class="st4" points="567.8,241.1 571.3,233.1 570.1,230.8 562.4,231.4 559.8,237.5 		"/>
		<polygon class="st4" points="570.1,230.8 563.9,228.1 562.4,231.4 570.1,230.8 		"/>
		<polygon class="st4" points="571.3,233.1 572,231.6 570.1,230.8 570.1,230.8 		"/>
		<polygon class="st4" points="570.1,230.8 570.1,230.8 570.1,230.8 		"/>
		
			<rect x="516.2" y="250.7" transform="matrix(0.4009 -0.9161 0.9161 0.4009 78.9331 628.0498)" class="st5" width="6.8" height="5.9"/>
		
			<rect x="515.3" y="269.1" transform="matrix(0.6787 -0.7344 0.7344 0.6787 -33.9366 470.0253)" class="st6" width="9.7" height="9.4"/>
		<polygon class="st9" points="437.7,258.1 426.1,270.6 430.4,274.5 437,280.6 438.3,281.8 440.7,279.2 446.3,273.2 449.8,269.3 		
			"/>
		<polygon class="st8" points="575.5,277.4 579.5,283.9 583.8,281.3 583.6,281.1 586.8,276.9 584,272.2 		"/>
		<polygon class="st8" points="583.8,281.3 588,278.8 586.8,276.9 583.6,281.1 		"/>
		<polygon class="st8" points="492.6,274.9 493.7,290.2 497.9,289.9 504.4,285.2 506.7,288.5 505.7,274 		"/>
		<polygon class="st8" points="497.9,289.9 506.8,289.2 506.7,288.5 504.4,285.2 		"/>
		<polygon class="st10" points="487.1,213.4 487.6,213.6 487.2,213.3 		"/>
		<polygon class="st10" points="489.1,208.9 487.2,213.3 487.6,213.6 495.2,217 499.3,207.5 494.1,205.2 494.6,206.4 		"/>
		<polygon class="st10" points="489.1,208.9 494.6,206.4 494.1,205.2 491.2,204 		"/>
		
			<rect x="556.4" y="249.4" transform="matrix(0.7253 -0.6884 0.6884 0.7253 -20.6466 454.9546)" class="st10" width="6.8" height="7.9"/>
		<polygon class="st12" points="468,270.6 467.6,271.1 475.3,278.1 476.4,276.6 		"/>
		<polygon class="st12" points="462.9,277.7 471.2,283.7 475.3,278.1 467.6,271.1 		"/>
		<polygon class="st12" points="573.7,301.1 572.7,294.4 571.3,294.6 557.5,296.7 558.2,301.3 558.8,304.9 559.5,309.7 562.9,309.2 
			565,308.9 574.6,307.4 		"/>
		<polygon class="st9" points="541.3,287.4 531.2,290.4 532.8,295.5 541.8,288.9 		"/>
		<polygon class="st9" points="541.8,288.9 532.8,295.5 533.6,298.4 537.2,298.3 537.2,299.9 544.4,297.7 		"/>
		<polygon class="st9" points="533.6,298.4 534.3,300.7 537.2,299.9 537.2,298.3 		"/>
		<polygon class="st11" points="422.9,194.6 434.7,207.2 426.6,215.1 		"/>
		<polygon class="st11" points="410.2,230.3 432,239.6 424.2,253.1 		"/>
		<polygon class="st11" points="408.8,268 417.8,278.8 418.5,284.5 413.3,288.2 		"/>
		<g class="st1">
			<path class="st9" d="M609.9,276.9l-6.7-5.1c0.1-0.6,0.2-1.3,0.3-1.9l4.1-2.4l-3.8-6.7c-0.1-1.5-0.2-2.9-0.4-4.4l4.8-10.2l-6.3-3
				l2-11.2l-12.4-2.2c-0.8-0.9-1.6-1.8-2.5-2.7l-5.4-9.7l-3.8,2.1c-1.8-1.1-3.6-2.2-5.5-3.1l0-0.2c-28.4,46.2-93.8,53.9-160.6,47.2
				L409,268l4.5,20.1l5.2-3.6l3.8,0.9l1.9,9l17.4-3.7l2.2,4.8l6.8-3.1l2.3,0.6l10.1,9.3l5.1-5.5l7.6,1.9l1.4,6.1l12.3-2.7l5.7,1.4
				l5.7,8l6.9-4.9l0.2,0.1l2.7,6.1l7.8-3.5l1.4,0.3l0.1,5.6l10.8-0.2l5.9,8.1l8.2-6l7.1,5.7l5.2-6.5l0,3.2l19.3-0.3l-0.1-4.6
				l4.9,2.2l4.6-10.4l15.4-8.1l-3.3-6.2L609.9,276.9z M575.2,232l-0.6-8.7l-0.4,0l-6.5,3.5l0-0.1l6.5-3.6h0.4L575.2,232L575.2,232z"
				/>
		</g>
	</g>
</g>
<rect x="348.1" y="328.7" transform="matrix(0.8098 -0.5867 0.5867 0.8098 -130.4136 273.7048)" class="st6" width="17.6" height="18.5"/>
<rect x="381.4" y="312.2" transform="matrix(0.2643 -0.9644 0.9644 0.2643 -22.2258 613.5193)" class="st9" width="19.2" height="18.2"/>
<rect x="365" y="373.5" transform="matrix(0.4282 -0.9037 0.9037 0.4282 -131.4892 553.9505)" class="st9" width="14" height="14.8"/>
<rect x="341.3" y="302" transform="matrix(0.9893 -0.1459 0.1459 0.9893 -41.0773 53.7508)" class="st6" width="9.2" height="9.7"/>
<rect x="382.8" y="346.3" transform="matrix(0.9893 -0.1458 0.1458 0.9893 -47.0493 60.2301)" class="st10" width="9.2" height="9.7"/>
<rect x="390.5" y="310.5" transform="matrix(0.4282 -0.9037 0.9037 0.4282 -59.9602 540.937)" class="st6" width="14" height="14.8"/>
<g class="st13">
	<path class="st14" d="M602,632.2c16.1-4.8,27.4-10.3,32.1-16.2c15-19-37.9-33.3-116.3-34.3c-78.4-1-162.1,12.2-190.2,31.7
		c-8.8,6.1-10.2,11.9-5.1,16.9l0,0l0,0l0,0l-63,39.2c0,0,13,39,115,40c58,0.6,113.6-7.6,134.6-17.7l0.1,0l0.3-0.2
		c2.1-1,3.8-2.1,5.2-3.2L602,632.2z"/>
</g>
<g>
	<ellipse class="st0" cx="369.5" cy="661.3" rx="111.2" ry="46.2"/>
	<polygon class="st0" points="526,527.7 478.2,671.3 365.5,700.3 363.4,547.9 	"/>
	<polygon class="st0" points="213,527.7 260.9,671.3 373,700.3 375.1,547.9 	"/>
	<path class="st0" d="M539.5,514.9c0-39-76.1-66.9-170-66.9c-93.9,0-170,27.9-170,66.9c0,39,76.1,70.7,170,70.7
		C463.4,585.6,539.5,553.9,539.5,514.9z"/>
	<ellipse class="st15" cx="369.2" cy="510.4" rx="145.3" ry="47.5"/>
	<g>
		<path class="st16" d="M464.3,502.7c-9.7-17.7-29.8-14.3-29.8-14.3s-2.7-13.6-18.1-13.8c-7.6-5.8-14.9-1.6-14.9-1.6
			c-13.3-5.7-23.9,1.1-23.9,1.1c-11.3-8.1-22.3-1.1-22.3-1.1c-42.5-9.6-61.1,19.7-61.1,19.7c-13.3-0.5-20.2,10.1-20.2,10.1
			c-20.7,3.5-25.5,22.8-25.5,22.8l-7.8,8.3c24.7,14.7,72.5,24.7,127.4,24.7c55.2,0,103.2-10.1,127.8-24.9l-5.1-5.9
			C486.8,500.9,464.3,502.7,464.3,502.7z"/>
	</g>
	<path class="st0" d="M362.2,456.6c0,0,62-7.8,103.8,13.1C465.9,469.8,420.2,457.4,362.2,456.6z"/>
	<path class="st0" d="M267.2,553.7c0,0,49.9,19.1,126.4,13.1C393.7,566.8,322.1,565,267.2,553.7z"/>
	<circle class="st17" cx="326" cy="493.1" r="12"/>
	<circle class="st17" cx="370" cy="528.1" r="12"/>
	<circle class="st17" cx="436" cy="509.1" r="15"/>
	<circle class="st18" cx="269" cy="524.1" r="12"/>
	<circle class="st17" cx="362.8" cy="482.3" r="6.7"/>
	<circle class="st18" cx="386.5" cy="483.1" r="8.5"/>
	<circle class="st18" cx="287.3" cy="503.8" r="6.2"/>
	<circle class="st18" cx="406.8" cy="480.3" r="4.7"/>
	<circle class="st16" cx="380" cy="535.1" r="12"/>
	<circle class="st16" cx="323" cy="509.1" r="16.7"/>
	<circle class="st16" cx="444" cy="516.1" r="16.7"/>
	<circle class="st16" cx="430" cy="522.1" r="16.7"/>
	<circle class="st16" cx="393" cy="491.1" r="12"/>
	<circle class="st18" cx="346.8" cy="513.3" r="6.7"/>
	<circle class="st17" cx="328.8" cy="527.3" r="4.7"/>
	<circle class="st16" cx="335.8" cy="494.3" r="4.7"/>
	<circle class="st16" cx="365.8" cy="536.3" r="5.6"/>
	<circle class="st16" cx="278.8" cy="530.3" r="5.6"/>
	<g class="st19">
		<path class="st20" d="M368.2,558.5c55.2,0,103.2-10.1,127.8-24.9l-5.1-5.9c-2.5-16.7-12.3-22.3-19.3-24.1
			C447,550,308.5,551,242.1,532.4l-1.3,1.4C265.5,548.5,313.3,558.5,368.2,558.5z"/>
	</g>
	<path class="st21" d="M373.6,585.5c-1.7,0-3.4,0-5.1,0c-1.9,0-3.7,0-5.6,0c-67.7-1-121.2-19.3-142.9-36.9
		c79,68.4,242.7,97.1,272.5,79l26.5-79C491,570,436,584.8,373.6,585.5z"/>
</g>
<text transform="matrix(1 0 0 1 208.8633 43.5142)" class="st0 st22 st23 st24">  Rating characteristics of Mozzstix</text>
<text transform="matrix(1 0 0 1 108.7168 772.6738)"><tspan x="0" y="0" class="st0 st25 st23 st24">1.</tspan><tspan x="24.1" y="0" class="st0 st22 st23 st24">   Cheese       </tspan><tspan x="178.2" y="0" class="st0 st25 st23 st24">2.</tspan><tspan x="202.3" y="0" class="st0 st22 st23 st24">   Stretch       </tspan><tspan x="356" y="0" class="st0 st25 st23 st24">3.</tspan><tspan x="380" y="0" class="st0 st22 st23 st24">   Breading    </tspan><tspan x="-5.5" y="45" class="st0 st25 st23 st24">4.</tspan><tspan x="18.6" y="45" class="st0 st22 st23 st24">   Crispness       </tspan><tspan x="202.6" y="45" class="st0 st25 st23 st24">5.</tspan><tspan x="226.6" y="45" class="st0 st22 st23 st24">   Dip       </tspan><tspan x="334.1" y="45" class="st0 st25 st23 st24">6.</tspan><tspan x="358.2" y="45" class="st0 st22 st23 st24">   Presentation</tspan></text>
<g>
	<g>
		<path class="st0" d="M336,338h-6c-0.8,0-1.5-0.7-1.5-1.5s0.7-1.5,1.5-1.5h6c0.8,0,1.5,0.7,1.5,1.5S336.8,338,336,338z M323,338h-6
			c-0.8,0-1.5-0.7-1.5-1.5s0.7-1.5,1.5-1.5h6c0.8,0,1.5,0.7,1.5,1.5S323.8,338,323,338z M310,338h-6c-0.8,0-1.5-0.7-1.5-1.5
			s0.7-1.5,1.5-1.5h6c0.8,0,1.5,0.7,1.5,1.5S310.8,338,310,338z M297,338h-6c-0.8,0-1.5-0.7-1.5-1.5s0.7-1.5,1.5-1.5h6
			c0.8,0,1.5,0.7,1.5,1.5S297.8,338,297,338z"/>
	</g>
</g>
<g>
	<g>
		<path class="st0" d="M492,121.5v6c0,0.8-0.7,1.5-1.5,1.5c-0.8,0-1.5-0.7-1.5-1.5v-6c0-0.8,0.7-1.5,1.5-1.5
			C491.3,120,492,120.7,492,121.5z M492,134.5v6c0,0.8-0.7,1.5-1.5,1.5c-0.8,0-1.5-0.7-1.5-1.5v-6c0-0.8,0.7-1.5,1.5-1.5
			C491.3,133,492,133.7,492,134.5z M492,147.5v6c0,0.8-0.7,1.5-1.5,1.5c-0.8,0-1.5-0.7-1.5-1.5v-6c0-0.8,0.7-1.5,1.5-1.5
			C491.3,146,492,146.7,492,147.5z M492,160.5v6c0,0.8-0.7,1.5-1.5,1.5c-0.8,0-1.5-0.7-1.5-1.5v-6c0-0.8,0.7-1.5,1.5-1.5
			C491.3,159,492,159.7,492,160.5z M492,173.5v6c0,0.8-0.7,1.5-1.5,1.5c-0.8,0-1.5-0.7-1.5-1.5v-6c0-0.8,0.7-1.5,1.5-1.5
			C491.3,172,492,172.7,492,173.5z M492,186.5v6c0,0.8-0.7,1.5-1.5,1.5c-0.8,0-1.5-0.7-1.5-1.5v-6c0-0.8,0.7-1.5,1.5-1.5
			C491.3,185,492,185.7,492,186.5z M492,199.5v6c0,0.8-0.7,1.5-1.5,1.5c-0.8,0-1.5-0.7-1.5-1.5v-6c0-0.8,0.7-1.5,1.5-1.5
			C491.3,198,492,198.7,492,199.5z"/>
	</g>
</g>
<text transform="matrix(1 0 0 1 481 112.3765)" class="st0 st26 st27 st24">3</text>
<text transform="matrix(1 0 0 1 270 345.3765)" class="st0 st26 st27 st24">4</text>
<text transform="matrix(1 0 0 1 119.0078 526.8677)" class="st0 st26 st27 st24">5</text>
<text transform="matrix(1 0 0 1 357 159.3765)" class="st0 st26 st27 st24">2</text>
<text transform="matrix(1 0 0 1 662.9854 421.8623)" class="st0 st26 st27 st24">6</text>
<text transform="matrix(1 0 0 1 319 102.3765)" class="st0 st26 st27 st24">1</text>
<g>
	<g>
		<path class="st0" d="M307,521h-6c-0.8,0-1.5-0.7-1.5-1.5s0.7-1.5,1.5-1.5h6c0.8,0,1.5,0.7,1.5,1.5S307.8,521,307,521z M294,521h-6
			c-0.8,0-1.5-0.7-1.5-1.5s0.7-1.5,1.5-1.5h6c0.8,0,1.5,0.7,1.5,1.5S294.8,521,294,521z M281,521h-6c-0.8,0-1.5-0.7-1.5-1.5
			s0.7-1.5,1.5-1.5h6c0.8,0,1.5,0.7,1.5,1.5S281.8,521,281,521z M268,521h-6c-0.8,0-1.5-0.7-1.5-1.5s0.7-1.5,1.5-1.5h6
			c0.8,0,1.5,0.7,1.5,1.5S268.8,521,268,521z M255,521h-6c-0.8,0-1.5-0.7-1.5-1.5s0.7-1.5,1.5-1.5h6c0.8,0,1.5,0.7,1.5,1.5
			S255.8,521,255,521z M242,521h-6c-0.8,0-1.5-0.7-1.5-1.5s0.7-1.5,1.5-1.5h6c0.8,0,1.5,0.7,1.5,1.5S242.8,521,242,521z M229,521h-6
			c-0.8,0-1.5-0.7-1.5-1.5s0.7-1.5,1.5-1.5h6c0.8,0,1.5,0.7,1.5,1.5S229.8,521,229,521z M216,521h-6c-0.8,0-1.5-0.7-1.5-1.5
			s0.7-1.5,1.5-1.5h6c0.8,0,1.5,0.7,1.5,1.5S216.8,521,216,521z M203,521h-6c-0.8,0-1.5-0.7-1.5-1.5s0.7-1.5,1.5-1.5h6
			c0.8,0,1.5,0.7,1.5,1.5S203.8,521,203,521z M190,521h-6c-0.8,0-1.5-0.7-1.5-1.5s0.7-1.5,1.5-1.5h6c0.8,0,1.5,0.7,1.5,1.5
			S190.8,521,190,521z M177,521h-6c-0.8,0-1.5-0.7-1.5-1.5s0.7-1.5,1.5-1.5h6c0.8,0,1.5,0.7,1.5,1.5S177.8,521,177,521z M164,521h-6
			c-0.8,0-1.5-0.7-1.5-1.5s0.7-1.5,1.5-1.5h6c0.8,0,1.5,0.7,1.5,1.5S164.8,521,164,521z M151,521h-6c-0.8,0-1.5-0.7-1.5-1.5
			s0.7-1.5,1.5-1.5h6c0.8,0,1.5,0.7,1.5,1.5S151.8,521,151,521z"/>
	</g>
</g>
<g>
	<g>
		<path class="st0" d="M328.5,197.5c-0.8,0-1.5-0.7-1.5-1.5v-6c0-0.8,0.7-1.5,1.5-1.5s1.5,0.7,1.5,1.5v6
			C330,196.8,329.3,197.5,328.5,197.5z M328.5,184.5c-0.8,0-1.5-0.7-1.5-1.5v-6c0-0.8,0.7-1.5,1.5-1.5s1.5,0.7,1.5,1.5v6
			C330,183.8,329.3,184.5,328.5,184.5z M328.5,171.5c-0.8,0-1.5-0.7-1.5-1.5v-6c0-0.8,0.7-1.5,1.5-1.5s1.5,0.7,1.5,1.5v6
			C330,170.8,329.3,171.5,328.5,171.5z M328.5,158.5c-0.8,0-1.5-0.7-1.5-1.5v-6c0-0.8,0.7-1.5,1.5-1.5s1.5,0.7,1.5,1.5v6
			C330,157.8,329.3,158.5,328.5,158.5z M328.5,145.5c-0.8,0-1.5-0.7-1.5-1.5v-6c0-0.8,0.7-1.5,1.5-1.5s1.5,0.7,1.5,1.5v6
			C330,144.8,329.3,145.5,328.5,145.5z M328.5,132.5c-0.8,0-1.5-0.7-1.5-1.5v-6c0-0.8,0.7-1.5,1.5-1.5s1.5,0.7,1.5,1.5v6
			C330,131.8,329.3,132.5,328.5,132.5z M328.5,119.5c-0.8,0-1.5-0.7-1.5-1.5v-6c0-0.8,0.7-1.5,1.5-1.5s1.5,0.7,1.5,1.5v6
			C330,118.8,329.3,119.5,328.5,119.5z"/>
	</g>
</g>
<g>
	<line class="st28" x1="425" y1="168.5" x2="303" y2="168.5"/>
	<line class="st28" x1="302.5" y1="162" x2="302.5" y2="175"/>
	<line class="st28" x1="426.5" y1="162" x2="426.5" y2="175"/>
</g>
<g>
	<line class="st28" x1="649.5" y1="702" x2="649.5" y2="143"/>
	<line class="st28" x1="650" y1="140.5" x2="625" y2="140.5"/>
	<line class="st28" x1="650" y1="701.5" x2="625" y2="701.5"/>
</g>
<text transform="matrix(1 0 0 1 90.1845 43.5137)"><tspan x="0" y="0" class="st0 st25 st23 st24">Fig. 01:</tspan><tspan x="94.5" y="0" class="st0 st22 st23 st24"> </tspan></text>
</svg>
