<?xml version="1.0" encoding="utf-8"?>
<!-- Generator: Adobe Illustrator 20.0.0, SVG Export Plug-In . SVG Version: 6.00 Build 0)  -->
<svg version="1.1" id="Layer_1" xmlns="http://www.w3.org/2000/svg" xmlns:xlink="http://www.w3.org/1999/xlink" x="0px" y="0px"
	 viewBox="0 0 340 340" style="enable-background:new 0 0 340 340;" xml:space="preserve">
<style type="text/css">
	.st0{fill:#E95224;}
	.st1{enable-background:new    ;}
	.st2{fill:#8E1B00;}
	.st3{fill:#FEFEFD;}
</style>
<path class="st0" d="M340,171.7c-1,93.9-77.8,169.2-171.7,168.3C74.4,339-0.9,262.1,0,168.3C1,74.4,77.9-1,171.7,0
	C265.6,1,340.9,77.8,340,171.7z"/>
<g>
	<g class="st1">
		<g>
			<path class="st2" d="M152.1,258.8c2.2-1.2,5.2-1.9,8.9-2.2l0.8,0l-0.1-0.8l-1-8.5l-0.1-0.7l-9.1-2.6l0.1,0.7l1,8.5l0.1,0.8
				l-0.8,0c-3.8,0.3-6.8,1-8.9,2.2c-1,0.5-1.7,1.1-1.9,1.6c-0.2,0.5-0.2,0.9,0,1.3c0.2,0.4,0.5,0.6,1,0.7l9.1,2.6
				c-0.5-0.1-0.8-0.4-1-0.7c-0.2-0.4-0.2-0.8,0-1.3C150.4,260,151.1,259.4,152.1,258.8z"/>
			<path class="st2" d="M147.8,274c1.1,0.2,2.4,0.4,3.9,0.4c0.8,0,1.8,0,2.7-0.1c2.4-0.2,4.1-0.3,5-0.3c0.2,0,0.4,0,0.5,0
				c0.4,0,0.8,0.1,1.1,0.2l-9.1-2.6c-0.3-0.1-0.7-0.1-1.1-0.2c-0.1,0-0.3,0-0.5,0c-0.9,0-2.6,0.1-5,0.3c-1,0.1-1.9,0.1-2.7,0.1
				c-1.5,0-2.9-0.1-3.9-0.4c-0.3-0.1-0.5-0.1-0.8-0.2l9.1,2.6C147.3,273.8,147.6,273.9,147.8,274z"/>
			<path class="st2" d="M167.1,263.5c-0.4-0.2-0.9-0.4-1.4-0.5l-9.1-2.6c0.5,0.1,1,0.3,1.4,0.5c2.1,1,3.7,2.7,5,5.1
				c1.2,2.2,1.7,4.5,1.5,6.8c-0.2,2.3-1.1,4.6-2.7,6.6c-1.6,2.1-3.7,3.8-6.5,5.3c-2.3,1.2-4.3,2.1-6,2.6c-1.7,0.5-3.7,0.8-5.8,0.9
				l-0.5,0l9.1,2.6l0.5,0c2.1-0.1,4-0.4,5.8-0.9c1.7-0.5,3.7-1.4,6-2.6c2.8-1.5,4.9-3.3,6.5-5.3c1.6-2.1,2.5-4.3,2.7-6.6
				c0.2-2.3-0.3-4.6-1.5-6.8C170.8,266.1,169.1,264.4,167.1,263.5z"/>
			<polygon class="st2" points="168.6,243.1 168,243.5 177.1,246.1 177.8,245.7 185.3,241.6 176.1,239 			"/>
			<polygon class="st2" points="195.6,236 203.1,231.9 203.8,231.6 203.4,230.9 199.5,223.5 199.1,222.8 190,220.2 190.3,220.9 
				194.3,228.3 194.6,229 194,229.3 186.5,233.4 200.1,259 200.4,259.6 199.8,260 190.7,264.9 190.1,265.3 199.2,267.9 199.8,267.5 
				208.9,262.6 209.5,262.2 209.2,261.6 			"/>
			<polygon class="st2" points="225,209.6 224.7,208.9 215.6,206.3 215.9,207 233.8,240.6 234.1,241.3 233.5,241.7 224.4,246.6 
				223.8,247 232.9,249.6 233.5,249.2 242.6,244.3 243.3,243.9 242.9,243.3 			"/>
			<polygon class="st2" points="251.3,199.4 260.4,202.1 249.9,195.6 249.6,195.4 240.5,192.8 240.8,193 			"/>
			<polygon class="st2" points="258.6,227.6 258.6,228 258.2,228.2 248,233.8 246.8,234.4 255.9,237.1 257.1,236.4 267.3,230.9 
				267.7,230.6 267.7,230.2 268.5,217.4 259.4,214.8 			"/>
			<polygon class="st2" points="290.7,216.8 271,206.7 272.5,184.3 272.6,182.9 263.4,180.3 263.4,181.6 261.9,204.1 281.6,214.2 
				282.9,214.8 281.6,215.5 271.2,221.2 270.8,221.4 279.9,224 280.3,223.8 290.8,218.1 292,217.4 			"/>
			<polygon class="st2" points="82.8,140.8 64.7,122.3 64.3,121.9 55.2,119.2 55.6,119.6 73.7,138.2 			"/>
			<path class="st2" d="M90.9,108.3l-0.4-0.6l-9.1-2.6l0.4,0.6l17.9,33.7l0.3,0.7l-0.7,0.4l-6.8,3.7L89,127.8l-9.1-2.6l4.9,22.5
				l0.1,0.6l-0.5,0.3l-8.5,4.6l-5-9.4c-0.6-1.2-1.5-2.6-2.5-4.3l-9.1-2.6c1,1.7,1.8,3.1,2.5,4.3l7.8,14.6l0.4,0.7l-0.7,0.4l-8,4.3
				l-0.6,0.4l9.1,2.6l0.6-0.4l8-4.3L79,159l-0.4-0.7l-2.5-4.6l8.2,2.4l0.5-0.3l8.6-4.7l0.5-0.3l-0.1-0.6L93,146l6.5,1.9l0.7-0.4
				l8.3-4.5l0.7-0.4l-0.3-0.7L90.9,108.3z"/>
			<path class="st2" d="M118.6,117.2l9.1,2.6c-2.2-0.6-4.4-2.8-6.3-6.5c-3.3-6.2-2.9-10.3,1.3-12.5c1.1-0.6,2.2-0.9,3.2-0.9
				c0.5,0,1,0.1,1.4,0.2l-9.1-2.6c-0.5-0.1-1-0.2-1.4-0.2c-1,0-2.1,0.3-3.2,0.9c-4.1,2.2-4.5,6.3-1.3,12.5
				C114.2,114.4,116.3,116.6,118.6,117.2z"/>
			<polygon class="st2" points="150.3,86.3 163.1,79.3 154,76.7 141.1,83.7 140.5,84 149.6,86.7 			"/>
			<path class="st2" d="M147.2,116.5c1.3-4.6,0.3-9.9-2.8-15.7c-3.1-5.8-6.9-9.5-11.4-11c-0.2-0.1-0.4-0.1-0.6-0.2l-9.1-2.6
				c0.2,0.1,0.4,0.1,0.6,0.2c4.5,1.5,8.3,5.2,11.4,11c3.1,5.8,4,11.1,2.8,15.7c-1.2,4.6-4.7,8.5-10.1,11.5c-3.6,1.9-7,2.9-10.2,2.9
				c-1.5,0-2.9-0.2-4.3-0.6l9.1,2.6c1.4,0.4,2.8,0.6,4.3,0.6c3.2,0,6.7-1,10.2-2.9C142.5,125,145.9,121.2,147.2,116.5z"/>
			<polygon class="st2" points="165.9,67.1 166,67.3 166,67.6 162.7,94.8 171.8,97.4 175.1,70.2 175.1,70 175,69.8 172,64.2 
				171.7,63.5 162.6,60.9 162.9,61.5 			"/>
			<polygon class="st2" points="186.9,66.4 199.7,59.4 190.6,56.8 177.7,63.8 177.1,64.2 186.2,66.8 			"/>
			<polygon class="st2" points="181.1,95 181.5,95.7 180.8,96 154.8,110.2 154.1,110.6 163.2,113.2 163.9,112.8 190,98.7 
				190.6,98.3 190.3,97.7 186.4,90.3 186,89.6 176.9,87 177.2,87.7 			"/>
			<polygon class="st2" points="202.5,47.3 202.6,47.5 202.6,47.7 199.2,74.9 208.4,77.5 211.7,50.3 211.7,50.1 211.6,49.9 
				208.6,44.3 208.3,43.6 199.1,41 199.5,41.7 			"/>
			<polygon class="st2" points="217.7,75.1 218.1,75.8 217.4,76.2 191.4,90.3 190.7,90.7 199.8,93.3 200.5,92.9 226.5,78.8 
				227.2,78.4 226.9,77.8 223,70.4 222.6,69.8 213.5,67.1 213.8,67.8 			"/>
		</g>
		<g>
			<path class="st3" d="M81.4,105l0.4,0.6l17.9,33.7l0.3,0.7l-0.7,0.4l-8.3,4.5l-0.7,0.4l-0.4-0.7l-7.8-14.8
				c-0.4-0.8-0.8-1.6-1.3-2.6c-0.2-0.4-0.5-1.1-1-2l4.9,22.5l0.1,0.6l-0.5,0.3l-8.6,4.7l-0.5,0.3l-0.4-0.4l-15.6-16.3
				c1,1.7,1.8,3.1,2.5,4.3l7.8,14.6l0.4,0.7l-0.7,0.4l-8,4.3l-0.6,0.4l-0.4-0.7l-17.9-33.7l-0.3-0.7l0.7-0.4l12-6.5l0.5-0.3l0.4,0.4
				l18.1,18.6l-5.4-25.5l-0.1-0.6l0.5-0.3l12.1-6.5L81.4,105z"/>
		</g>
		<g>
			<path class="st3" d="M135.3,98.2c3.1,5.8,4,11.1,2.8,15.7c-1.2,4.6-4.7,8.5-10.1,11.5c-3.6,1.9-7,2.9-10.2,2.9
				c-1.6,0-3.2-0.3-4.8-0.8c-4.5-1.5-8.4-5.2-11.5-11c-3.1-5.7-4-11-2.7-15.7c1.3-4.7,4.7-8.5,10.1-11.5c3.6-2,7.1-3,10.3-3
				c1.6,0,3.2,0.2,4.7,0.8C128.3,88.7,132.2,92.4,135.3,98.2z M126.6,111.9c0.2-2-0.5-4.7-2.2-7.9c-1.7-3.2-3.5-5.3-5.3-6.2
				c-0.8-0.4-1.6-0.6-2.4-0.6c-1,0-2.1,0.3-3.2,0.9c-4.1,2.2-4.5,6.3-1.3,12.5c2.4,4.4,5,6.7,7.7,6.7c1,0,2.1-0.3,3.2-0.9
				C125.2,115.4,126.4,113.9,126.6,111.9"/>
		</g>
		<g>
			<polygon class="st3" points="162.6,60.9 162.9,61.5 165.9,67.1 166,67.3 166,67.6 162.7,94.8 176.2,87.4 176.9,87 177.2,87.7 
				181.1,95 181.5,95.7 180.8,96 154.8,110.2 154.1,110.6 153.8,109.9 150.8,104.3 150.7,104.1 150.7,103.8 154,76.7 141.1,83.7 
				140.5,84 140.1,83.4 136.2,76 135.9,75.4 136.6,75 161.9,61.2 			"/>
		</g>
		<g>
			<polygon class="st3" points="199.1,41 199.5,41.7 202.5,47.3 202.6,47.5 202.6,47.7 199.2,74.9 212.8,67.5 213.5,67.1 
				213.8,67.8 217.7,75.1 218.1,75.8 217.4,76.2 191.4,90.3 190.7,90.7 190.4,90 187.4,84.4 187.3,84.2 187.3,84 190.6,56.8 
				177.7,63.8 177.1,64.2 176.7,63.5 172.8,56.1 172.5,55.5 173.1,55.1 198.5,41.4 			"/>
		</g>
	</g>
	<g class="st1">
		<g>
			<path class="st3" d="M151.6,244l0.1,0.7l1,8.5l0.1,0.8l-0.8,0c-3.8,0.3-6.8,1-8.9,2.2c-1,0.5-1.7,1.1-1.9,1.6
				c-0.2,0.5-0.2,0.9,0,1.3c0.2,0.4,0.7,0.7,1.4,0.8c0.3,0.1,0.8,0.1,1.6,0.1c1.2,0,3-0.1,5.3-0.2c0.8-0.1,1.6-0.1,2.4-0.1
				c2.6,0,4.7,0.4,6.2,1.1c2.1,1,3.7,2.7,5,5.1c1.2,2.2,1.7,4.5,1.5,6.8c-0.2,2.3-1.1,4.6-2.7,6.6c-1.6,2.1-3.7,3.8-6.5,5.3
				c-2.3,1.2-4.3,2.1-6,2.6c-1.7,0.5-3.7,0.8-5.8,0.9l-0.5,0l-0.2-0.4l-4.3-8.1l-0.6-1.1l1.2,0c2.1,0,4.3-0.3,6.3-0.8
				c2-0.5,3.8-1.2,5.3-2c1.2-0.6,2-1.3,2.3-2c0.3-0.6,0.3-1.1,0-1.6c-0.2-0.3-0.4-0.5-0.7-0.7c-0.3-0.2-0.9-0.3-1.5-0.3
				c-0.1,0-0.3,0-0.5,0c-0.9,0-2.6,0.1-5,0.3c-1,0.1-1.9,0.1-2.7,0.1c-1.5,0-2.9-0.1-3.9-0.4c-1.7-0.4-3.2-1.1-4.4-2.1
				c-1.3-1-2.3-2.4-3.3-4.1c-1.8-3.3-1.9-6.6-0.5-9.7c1.4-3.1,4.1-5.8,8.2-8c3.5-1.9,7.6-3.1,12.2-3.4L151.6,244z"/>
		</g>
		<g>
			<polygon class="st3" points="190,220.2 190.3,220.9 194.3,228.3 194.6,229 194,229.3 186.5,233.4 200.1,259 200.4,259.6 
				199.8,260 190.7,264.9 190.1,265.3 189.7,264.6 176.1,239 168.6,243.1 168,243.5 167.6,242.8 163.7,235.4 163.3,234.7 164,234.3 
				189.3,220.6 			"/>
		</g>
	</g>
	<g class="st1">
		<g>
			<polygon class="st3" points="215.6,206.3 215.9,207 233.8,240.6 234.1,241.3 233.5,241.7 224.4,246.6 223.8,247 223.4,246.3 
				205.5,212.6 205.2,212 205.8,211.6 214.9,206.7 			"/>
		</g>
		<g>
			<polygon class="st3" points="263.4,180.3 263.4,181.6 261.9,204.1 281.6,214.2 282.9,214.8 281.6,215.5 271.2,221.2 270.8,221.4 
				270.5,221.2 259.4,214.8 258.6,227.6 258.6,228 258.2,228.2 248,233.8 246.8,234.4 246.9,233.1 248.8,210.3 230.1,199.7 
				228.9,199.1 230.1,198.4 240.1,193 240.5,192.8 240.8,193 251.3,199.4 251.5,187.2 251.6,186.7 251.9,186.5 262.3,180.9 			"/>
		</g>
	</g>
</g>
</svg>
