<?xml version="1.0" encoding="utf-8"?>
<!-- Generator: Adobe Illustrator 20.0.0, SVG Export Plug-In . SVG Version: 6.00 Build 0)  -->
<svg version="1.1" id="Layer_1" xmlns="http://www.w3.org/2000/svg" xmlns:xlink="http://www.w3.org/1999/xlink" x="0px" y="0px"
	 viewBox="0 0 496 92" style="enable-background:new 0 0 496 92;" xml:space="preserve">
<style type="text/css">
	.st0{fill:#FFFFFF;}
	.st1{fill:#FFE000;}
	.st2{fill:none;}
	.st3{fill:#FFEFA1;}
	.st4{fill:#AFCE4E;}
	.st5{fill:#FFC757;}
	.st6{fill:#CE7500;}
	.st7{fill:#FFE2B0;}
	.st8{fill:#AD5E00;}
	.st9{fill:#773B00;}
	.st10{fill:#5F8223;}
	.st11{opacity:0.6;fill:#773B00;enable-background:new    ;}
	.st12{fill:#ED9200;}
	.st13{fill:#435B15;}
	.st14{opacity:0.25;}
</style>
<g>
	<g>
		<path class="st0" d="M449,8.1c-0.7,0.1-1.4,0.2-2.2,0.3C447.6,8.4,448.3,8.3,449,8.1L449,8.1z"/>
		<path class="st0" d="M443.6,78.4L443.6,78.4L443.6,78.4L443.6,78.4z"/>
		<path class="st1" d="M445.4,8.6C445.4,8.6,445.3,8.7,445.4,8.6c0.4,0,0.9-0.1,1.5-0.2C446.4,8.5,445.9,8.6,445.4,8.6z"/>
		<path class="st1" d="M449.8,8.6c-0.1,0-0.3-0.2-0.4-0.3c-0.1,0-0.3,0.3-0.4,0.3L443.6,79c0.5,0,0.8,0,0.8,0L449.8,8.6z"/>
		<g>
			<path class="st2" d="M258.3,56.7c0,1.2,5.7,1.9,14.4,2.3l0,0c26.6-2.4,52.9-5.9,77.2-11.1l0,0C321.3,49.5,258.2,54,258.3,56.7z"
				/>
			<path class="st2" d="M312.4,37.7c7.9-0.1,14-2.8,14-4.2s-6.4-2.4-14.3-2.3s-14.2,1.4-14.2,2.8C297.9,35.4,304.5,37.8,312.4,37.7z
				"/>
			<path class="st0" d="M52.5,58.8c0.2,0,0.4,0,0.5,0c0.4,0,0.7,0.1,1.1,0.1c0.2,0,0.4,0,0.6,0c0.4,0,0.8,0.1,1.2,0.1
				c0.2,0,0.4,0,0.6,0c0.4,0,0.7,0,1.1,0.1c0.3,0,0.5,0,0.8,0.1c0.4,0,0.7,0,1.1,0.1c0.3,0,0.5,0,0.8,0.1c0.5,0,0.9,0.1,1.4,0.1
				c0.2,0,0.4,0,0.6,0c0.6,0,1.3,0.1,2,0.1h0.1c0.7,0,1.4,0.1,2.2,0.1c0.1,0,0.3,0,0.4,0c0.6,0,1.2,0.1,1.8,0.1c0.2,0,0.4,0,0.7,0
				c0.5,0,1.1,0.1,1.6,0.1c0.2,0,0.5,0,0.8,0c0.5,0,1.1,0.1,1.6,0.1c0.3,0,0.5,0,0.8,0c0.6,0,1.1,0.1,1.7,0.1c0.2,0,0.5,0,0.7,0
				c0.6,0,1.3,0.1,2,0.1c0.2,0,0.3,0,0.5,0c1.7,0.1,3.5,0.2,5.3,0.3c0.1,0,0.1,0,0.2,0c0.8,0,1.6,0.1,2.5,0.1c0.2,0,0.4,0,0.6,0
				c0.7,0,1.4,0.1,2.2,0.1c0.2,0,0.5,0,0.7,0c0.7,0,1.4,0.1,2.1,0.1c0.3,0,0.5,0,0.8,0c0.7,0,1.4,0.1,2.2,0.1c0.2,0,0.5,0,0.7,0
				c0.8,0,1.6,0.1,2.4,0.1c0.2,0,0.4,0,0.6,0c3,0.1,6.1,0.3,9.3,0.4c0.2,0,0.3,0,0.5,0c0.9,0,1.8,0.1,2.7,0.1c0.2,0,0.5,0,0.7,0
				c0.8,0,1.7,0.1,2.5,0.1c0.3,0,0.5,0,0.8,0c0.9,0,1.7,0.1,2.6,0.1c0.2,0,0.5,0,0.7,0c0.9,0,1.9,0.1,2.8,0.1c0.2,0,0.3,0,0.5,0
				c3.4,0.1,6.9,0.2,10.5,0.3c0.1,0,0.2,0,0.3,0c1.1,0,2.2,0.1,3.2,0.1c0.2,0,0.4,0,0.6,0c1,0,2,0,2.9,0.1c0.3,0,0.5,0,0.8,0
				c1,0,1.9,0,2.9,0.1c0.2,0,0.5,0,0.7,0c1,0,2,0,3.1,0.1c0.2,0,0.4,0,0.6,0c3.7,0.1,7.5,0.1,11.4,0.1l0,0c1.2,0,2.5,0,3.8,0
				c0.2,0,0.4,0,0.5,0c1.1,0,2.2,0,3.3,0c0.2,0,0.5,0,0.7,0c1,0,2.1,0,3.2,0c0.3,0,0.5,0,0.8,0c1.1,0,2.2,0,3.3,0c0.2,0,0.4,0,0.6,0
				c1.3,0,2.5,0,3.8,0h0.1c4,0,8.1-0.1,12.1-0.1c0.2,0,0.3,0,0.5,0c1.2,0,2.3,0,3.5-0.1c0.2,0,0.5,0,0.7,0c1.1,0,2.2,0,3.3-0.1
				c0.3,0,0.5,0,0.8,0c1.1,0,2.2,0,3.4-0.1c0.2,0,0.5,0,0.7,0c1.2,0,2.5-0.1,3.8-0.1c0.1,0,0.2,0,0.3,0c4.2-0.1,8.3-0.2,12.5-0.4
				c0.2,0,0.3,0,0.5,0c1.2,0,2.4-0.1,3.6-0.1c0.3,0,0.5,0,0.8,0c1.1,0,2.2-0.1,3.3-0.1c0.3,0,0.6,0,0.9,0c1.1-0.1,2.2-0.1,3.3-0.2
				c0.3,0,0.5,0,0.8,0c1.2-0.1,2.4-0.1,3.6-0.2c0.2,0,0.3,0,0.5,0c4.2-0.2,8.4-0.5,12.7-0.7c0.2,0,0.3,0,0.5,0
				c1.2-0.1,2.4-0.2,3.6-0.2c0.3,0,0.6,0,0.9-0.1c1.1-0.1,2.2-0.2,3.3-0.2c0.3,0,0.6,0,1-0.1c1.1-0.1,2.2-0.2,3.2-0.2
				c0.3,0,0.6,0,1-0.1c1.1-0.1,2.3-0.2,3.4-0.3c0.2,0,0.5,0,0.7-0.1c1.4-0.1,2.7-0.2,4.1-0.4c-8.7-0.4-14.4-1.2-14.4-2.3
				c-0.1-2.6,63-7.2,91.6-8.7c1.2-0.3,2.4-0.5,3.5-0.8c0.2,0,0.4-0.1,0.6-0.1c1-0.2,1.9-0.4,2.9-0.6c0.3-0.1,0.6-0.1,0.9-0.2
				c0.9-0.2,1.7-0.4,2.6-0.6c0.4-0.1,0.7-0.2,1.1-0.3c0.8-0.2,1.6-0.4,2.4-0.6c0.4-0.1,0.8-0.2,1.2-0.3c0.8-0.2,1.5-0.4,2.3-0.6
				c0.4-0.1,0.8-0.2,1.2-0.3c0.7-0.2,1.5-0.4,2.2-0.6c0.4-0.1,0.8-0.2,1.2-0.3c0.7-0.2,1.4-0.4,2.1-0.6c0.4-0.1,0.8-0.2,1.2-0.3
				c0.7-0.2,1.4-0.4,2.1-0.6c0.4-0.1,0.8-0.2,1.2-0.4c0.7-0.2,1.4-0.4,2.1-0.6c0.4-0.1,0.8-0.2,1.2-0.4c0.7-0.2,1.4-0.4,2-0.6
				c0.4-0.1,0.8-0.2,1.2-0.4c0.7-0.2,1.4-0.4,2-0.7c0.4-0.1,0.8-0.3,1.2-0.4c0.7-0.2,1.4-0.5,2.1-0.7c0.4-0.1,0.7-0.2,1.1-0.4
				c0.7-0.2,1.4-0.5,2.1-0.7c0.3-0.1,0.7-0.2,1-0.3c0.8-0.3,1.5-0.6,2.3-0.8c0.3-0.1,0.5-0.2,0.8-0.3c1-0.4,1.9-0.7,2.9-1.1
				c0,0,0.1,0,0.1-0.1c1-0.4,2-0.8,3-1.2c0.1,0,0.1-0.1,0.2-0.1c0.9-0.4,1.8-0.7,2.7-1.1c0.3-0.1,0.6-0.2,0.8-0.4
				c0.7-0.3,1.4-0.6,2-0.9c0.3-0.1,0.7-0.3,1-0.5c0.6-0.3,1.2-0.5,1.8-0.8c0.4-0.2,0.7-0.3,1.1-0.5c0.6-0.3,1.1-0.5,1.7-0.8
				c0.4-0.2,0.8-0.4,1.1-0.5c0.5-0.3,1.1-0.5,1.6-0.8c0.4-0.2,0.8-0.4,1.2-0.6c0.5-0.3,1-0.5,1.5-0.8c0.4-0.2,0.8-0.4,1.2-0.6
				c0.5-0.3,1-0.5,1.5-0.8c0.4-0.2,0.8-0.4,1.1-0.6c0.5-0.3,1-0.5,1.4-0.8c0.4-0.2,0.8-0.4,1.1-0.6c0.5-0.3,0.9-0.5,1.4-0.8
				c0.4-0.2,0.7-0.4,1.1-0.6c0.5-0.3,0.9-0.5,1.4-0.8c0.4-0.2,0.7-0.4,1.1-0.7c0.4-0.3,0.9-0.6,1.3-0.8c0.4-0.2,0.7-0.4,1.1-0.7
				c0.4-0.3,0.9-0.6,1.3-0.9c0.3-0.2,0.7-0.4,1-0.7c0.4-0.3,0.9-0.6,1.3-0.9c0.3-0.2,0.6-0.4,1-0.7s0.9-0.6,1.3-1
				c0.3-0.2,0.6-0.4,0.9-0.6c0.5-0.4,1-0.7,1.4-1.1c0.2-0.2,0.5-0.4,0.7-0.6c0.7-0.5,1.4-1.1,2.1-1.7c-223,35.2-393.8,4.1-393.8,4.1
				L49.9,82c0.8-0.1,1.5-0.3,2.3-0.4L50.8,80L51,58.1C51.4,58.8,52,58.8,52.5,58.8z M312.1,31.3c7.9-0.1,14.3,0.9,14.3,2.3
				c0,1.4-6.1,4-14,4.2c-7.9,0.1-14.5-2.3-14.5-3.7C297.9,32.6,304.3,31.4,312.1,31.3z"/>
			<path class="st0" d="M234.3,61.6c-0.3,0-0.5,0-0.8,0C233.8,61.6,234,61.6,234.3,61.6z"/>
			<path class="st0" d="M251.5,60.6c-0.2,0-0.3,0-0.5,0C251.2,60.7,251.4,60.6,251.5,60.6z"/>
			<path class="st0" d="M361.5,45.3c-0.4,0.1-0.7,0.2-1.1,0.3C360.8,45.5,361.1,45.4,361.5,45.3z"/>
			<path class="st0" d="M225.9,62c-0.3,0-0.5,0-0.8,0C225.4,62,225.7,62,225.9,62z"/>
			<path class="st0" d="M230.1,61.8c-0.3,0-0.6,0-0.9,0C229.6,61.8,229.8,61.8,230.1,61.8z"/>
			<path class="st0" d="M354.1,47c-0.2,0-0.4,0.1-0.6,0.1C353.6,47.1,353.8,47.1,354.1,47z"/>
			<path class="st0" d="M221.5,62.2c-0.2,0-0.3,0-0.5,0C221.2,62.2,221.4,62.2,221.5,62.2z"/>
			<path class="st0" d="M256,60.3c-0.3,0-0.6,0-0.9,0.1C255.5,60.4,255.8,60.3,256,60.3z"/>
			<path class="st0" d="M357.9,46.2c-0.3,0.1-0.6,0.1-0.9,0.2C357.2,46.3,357.6,46.2,357.9,46.2z"/>
			<path class="st0" d="M268.6,59.4c-0.2,0-0.5,0-0.7,0.1C268.1,59.4,268.4,59.4,268.6,59.4z"/>
			<path class="st0" d="M264.5,59.7c-0.3,0-0.6,0-1,0.1C263.8,59.7,264.2,59.7,264.5,59.7z"/>
			<path class="st0" d="M260.3,60c-0.3,0-0.6,0-1,0.1C259.7,60.1,260,60,260.3,60z"/>
			<path class="st0" d="M238.4,61.4c-0.2,0-0.3,0-0.5,0C238.1,61.4,238.2,61.4,238.4,61.4z"/>
			<path class="st0" d="M163.8,63.1c-0.2,0-0.4,0-0.5,0C163.4,63.1,163.6,63.1,163.8,63.1z"/>
			<path class="st0" d="M159.5,63.1L159.5,63.1L159.5,63.1z"/>
			<path class="st0" d="M167.8,63.1c-0.2,0-0.5,0-0.7,0C167.3,63.1,167.5,63.1,167.8,63.1z"/>
			<path class="st0" d="M144.4,62.9c-0.2,0-0.5,0-0.7,0C144,62.9,144.2,62.9,144.4,62.9z"/>
			<path class="st0" d="M148.1,62.9c-0.2,0-0.4,0-0.6,0C147.7,62.9,147.9,62.9,148.1,62.9z"/>
			<path class="st0" d="M208.5,62.6c-0.1,0-0.2,0-0.3,0C208.3,62.6,208.4,62.6,208.5,62.6z"/>
			<path class="st0" d="M171.7,63.1c-0.3,0-0.5,0-0.8,0C171.2,63.1,171.5,63.1,171.7,63.1z"/>
			<path class="st0" d="M200.4,62.8c-0.3,0-0.5,0-0.8,0C199.9,62.8,200.2,62.8,200.4,62.8z"/>
			<path class="st0" d="M204.5,62.7c-0.2,0-0.5,0-0.7,0C204,62.7,204.3,62.7,204.5,62.7z"/>
			<path class="st0" d="M196.3,62.9c-0.2,0-0.5,0-0.7,0C195.8,62.9,196.1,62.9,196.3,62.9z"/>
			<path class="st0" d="M175.6,63.1c-0.2,0-0.4,0-0.6,0C175.2,63.1,175.4,63.1,175.6,63.1z"/>
			<path class="st0" d="M192.1,63c-0.2,0-0.3,0-0.5,0C191.8,63,191.9,63,192.1,63z"/>
			<path class="st0" d="M179.5,63.1h-0.1C179.4,63.1,179.4,63.1,179.5,63.1z"/>
			<path class="st0" d="M391.5,36.7c-0.4,0.1-0.7,0.2-1.1,0.4C390.8,36.9,391.2,36.8,391.5,36.7z"/>
			<path class="st0" d="M365,44.4c-0.4,0.1-0.8,0.2-1.2,0.3C364.3,44.6,364.6,44.5,365,44.4z"/>
			<path class="st0" d="M421.8,23.9c-0.4,0.2-0.8,0.4-1.2,0.6C421,24.3,421.4,24.1,421.8,23.9z"/>
			<path class="st0" d="M426.9,21.1c-0.4,0.2-0.8,0.4-1.1,0.6C426.2,21.6,426.6,21.3,426.9,21.1z"/>
			<path class="st0" d="M429.5,19.7c-0.4,0.2-0.7,0.4-1.1,0.6C428.7,20.1,429.1,19.9,429.5,19.7z"/>
			<path class="st0" d="M413.5,28c-0.4,0.2-0.7,0.3-1.1,0.5C412.8,28.3,413.1,28.1,413.5,28z"/>
			<path class="st0" d="M419.1,25.3c-0.4,0.2-0.8,0.4-1.2,0.6C418.3,25.7,418.7,25.5,419.1,25.3z"/>
			<path class="st0" d="M416.3,26.6c-0.4,0.2-0.8,0.4-1.1,0.5C415.6,27,416,26.8,416.3,26.6z"/>
			<path class="st0" d="M443.2,10.4c-0.2,0.2-0.5,0.4-0.7,0.6C442.7,10.7,443,10.5,443.2,10.4z"/>
			<path class="st0" d="M441.1,12c-0.3,0.2-0.6,0.4-0.9,0.6C440.5,12.4,440.8,12.2,441.1,12z"/>
			<path class="st0" d="M410.6,29.3c-0.3,0.2-0.7,0.3-1,0.5C409.9,29.6,410.3,29.4,410.6,29.3z"/>
			<path class="st0" d="M438.9,13.6c-0.3,0.2-0.6,0.4-1,0.7C438.2,14,438.6,13.8,438.9,13.6z"/>
			<path class="st0" d="M436.6,15.2c-0.3,0.2-0.7,0.4-1,0.7C435.9,15.6,436.3,15.4,436.6,15.2z"/>
			<path class="st0" d="M434.3,16.7c-0.3,0.2-0.7,0.4-1.1,0.7C433.6,17.1,433.9,16.9,434.3,16.7z"/>
			<path class="st0" d="M431.9,18.2c-0.4,0.2-0.7,0.4-1.1,0.7C431.2,18.6,431.5,18.4,431.9,18.2z"/>
			<path class="st0" d="M424.4,22.6c-0.4,0.2-0.8,0.4-1.1,0.6C423.6,23,424,22.8,424.4,22.6z"/>
			<path class="st0" d="M385.2,38.7c-0.4,0.1-0.8,0.3-1.2,0.4C384.4,39,384.8,38.9,385.2,38.7z"/>
			<path class="st0" d="M378.6,40.7c-0.4,0.1-0.8,0.2-1.2,0.4C377.8,41,378.2,40.9,378.6,40.7z"/>
			<path class="st0" d="M407.5,30.6c-0.3,0.1-0.6,0.2-0.8,0.4C407,30.8,407.3,30.7,407.5,30.6z"/>
			<path class="st0" d="M375.3,41.7c-0.4,0.1-0.8,0.2-1.2,0.3C374.5,41.9,374.9,41.8,375.3,41.7z"/>
			<path class="st0" d="M371.9,42.6c-0.4,0.1-0.8,0.2-1.2,0.3C371.1,42.8,371.5,42.7,371.9,42.6z"/>
			<path class="st0" d="M368.5,43.5c-0.4,0.1-0.8,0.2-1.2,0.3C367.7,43.7,368.1,43.6,368.5,43.5z"/>
			<path class="st0" d="M381.9,39.8c-0.4,0.1-0.8,0.2-1.2,0.4C381.1,40,381.5,39.9,381.9,39.8z"/>
			<path class="st0" d="M400.7,33.3c0,0-0.1,0-0.1,0.1C400.7,33.4,400.7,33.3,400.7,33.3z"/>
			<path class="st0" d="M404,32c-0.1,0-0.1,0.1-0.2,0.1C403.9,32.1,403.9,32.1,404,32z"/>
			<path class="st0" d="M397.7,34.5c-0.3,0.1-0.5,0.2-0.8,0.3C397.2,34.6,397.5,34.6,397.7,34.5z"/>
			<path class="st0" d="M388.4,37.7c-0.4,0.1-0.8,0.3-1.2,0.4C387.6,38,388,37.8,388.4,37.7z"/>
			<path class="st0" d="M140.8,62.8c-0.3,0-0.5,0-0.8,0C140.3,62.8,140.6,62.8,140.8,62.8z"/>
			<path class="st0" d="M394.6,35.6c-0.3,0.1-0.7,0.2-1,0.3C394,35.8,394.3,35.7,394.6,35.6z"/>
			<path class="st0" d="M99.3,61.5c-0.2,0-0.4,0-0.6,0C99,61.5,99.2,61.5,99.3,61.5z"/>
			<path class="st0" d="M54.7,59c-0.2,0-0.4,0-0.6,0C54.3,59,54.5,59,54.7,59z"/>
			<path class="st0" d="M67,59.8c-0.1,0-0.3,0-0.4,0C66.7,59.8,66.8,59.8,67,59.8z"/>
			<path class="st0" d="M90.6,61.1c-0.2,0-0.5,0-0.7,0C90.1,61.1,90.4,61.1,90.6,61.1z"/>
			<path class="st0" d="M115.9,62.1c-0.3,0-0.5,0-0.8,0C115.4,62.1,115.6,62.1,115.9,62.1z"/>
			<path class="st0" d="M60.4,59.4c-0.3,0-0.5,0-0.8-0.1C59.8,59.3,60.1,59.3,60.4,59.4z"/>
			<path class="st0" d="M119.2,62.2c-0.2,0-0.5,0-0.7,0C118.7,62.2,118.9,62.2,119.2,62.2z"/>
			<path class="st0" d="M56.6,59.1c-0.2,0-0.4,0-0.6,0C56.1,59.1,56.3,59.1,56.6,59.1z"/>
			<path class="st0" d="M58.5,59.2c-0.3,0-0.5,0-0.8-0.1C57.9,59.2,58.2,59.2,58.5,59.2z"/>
			<path class="st0" d="M64.4,59.6C64.3,59.6,64.3,59.6,64.4,59.6C64.3,59.6,64.3,59.6,64.4,59.6z"/>
			<path class="st0" d="M109.2,61.9c-0.2,0-0.3,0-0.5,0C108.8,61.9,109,61.9,109.2,61.9z"/>
			<path class="st0" d="M84.6,60.8c-0.1,0-0.1,0-0.2,0C84.5,60.8,84.5,60.8,84.6,60.8z"/>
			<path class="st0" d="M79.1,60.5c-0.2,0-0.3,0-0.5,0C78.8,60.5,78.9,60.5,79.1,60.5z"/>
			<path class="st0" d="M112.6,62c-0.2,0-0.5,0-0.7,0C112.1,62,112.3,62,112.6,62z"/>
			<path class="st0" d="M87.7,60.9c-0.2,0-0.4,0-0.6,0C87.3,60.9,87.5,60.9,87.7,60.9z"/>
			<path class="st0" d="M62.3,59.5c-0.2,0-0.4,0-0.6,0C61.9,59.5,62.1,59.5,62.3,59.5z"/>
			<path class="st0" d="M96.4,61.3c-0.2,0-0.5,0-0.7,0C95.9,61.3,96.2,61.3,96.4,61.3z"/>
			<path class="st0" d="M74.2,60.2c-0.3,0-0.5,0-0.8,0C73.7,60.2,73.9,60.2,74.2,60.2z"/>
			<path class="st0" d="M133.3,62.6c-0.1,0-0.2,0-0.3,0C133.1,62.6,133.2,62.6,133.3,62.6z"/>
			<path class="st0" d="M71.8,60.1c-0.3,0-0.5,0-0.8,0C71.3,60,71.5,60.1,71.8,60.1z"/>
			<path class="st0" d="M137.1,62.7c-0.2,0-0.4,0-0.6,0C136.7,62.7,136.9,62.7,137.1,62.7z"/>
			<path class="st0" d="M122.5,62.3c-0.2,0-0.4,0-0.5,0C122.2,62.3,122.3,62.3,122.5,62.3z"/>
			<path class="st0" d="M53,58.9c-0.2,0-0.4,0-0.5,0C52.7,58.9,52.8,58.9,53,58.9z"/>
			<path class="st0" d="M76.6,60.3c-0.3,0-0.5,0-0.7,0C76.1,60.3,76.4,60.3,76.6,60.3z"/>
			<path class="st0" d="M93.5,61.2c-0.3,0-0.5,0-0.8,0C93,61.2,93.2,61.2,93.5,61.2z"/>
			<path class="st0" d="M69.4,59.9c-0.2,0-0.4,0-0.7,0C69,59.9,69.2,59.9,69.4,59.9z"/>
			<path class="st3" d="M64.3,59.6c-0.7,0-1.3-0.1-2-0.1C63,59.5,63.6,59.6,64.3,59.6z"/>
			<path class="st3" d="M406.7,30.9c-0.9,0.4-1.8,0.7-2.7,1.1C404.9,31.7,405.8,31.3,406.7,30.9z"/>
			<path class="st3" d="M403.8,32.1c-1,0.4-2,0.8-3,1.2C401.8,32.9,402.8,32.5,403.8,32.1z"/>
			<path class="st3" d="M390.4,37c-0.7,0.2-1.4,0.5-2.1,0.7C389.1,37.5,389.7,37.3,390.4,37z"/>
			<path class="st3" d="M71,60c-0.5,0-1.1-0.1-1.6-0.1C69.9,60,70.5,60,71,60z"/>
			<path class="st3" d="M68.7,59.9c-0.6,0-1.2-0.1-1.8-0.1C67.6,59.8,68.1,59.9,68.7,59.9z"/>
			<path class="st3" d="M387.2,38.1c-0.7,0.2-1.4,0.4-2,0.7C385.9,38.5,386.5,38.3,387.2,38.1z"/>
			<path class="st3" d="M400.6,33.4c-1,0.4-1.9,0.7-2.9,1.1C398.7,34.1,399.6,33.7,400.6,33.4z"/>
			<path class="st3" d="M384,39.1c-0.7,0.2-1.4,0.4-2,0.6C382.6,39.5,383.3,39.3,384,39.1z"/>
			<path class="st3" d="M393.7,35.9c-0.7,0.2-1.4,0.5-2.1,0.7C392.2,36.4,393,36.2,393.7,35.9z"/>
			<path class="st3" d="M66.5,59.8c-0.7,0-1.5-0.1-2.2-0.1C65.1,59.7,65.8,59.7,66.5,59.8z"/>
			<path class="st3" d="M396.9,34.7c-0.8,0.3-1.5,0.6-2.3,0.8C395.4,35.3,396.2,35,396.9,34.7z"/>
			<path class="st3" d="M54.1,59c-0.4,0-0.8-0.1-1.1-0.1C53.4,58.9,53.8,58.9,54.1,59z"/>
			<path class="st3" d="M52.5,58.8c-0.5,0-1-0.1-1.5-0.1C51.4,58.8,52,58.8,52.5,58.8z"/>
			<path class="st3" d="M435.6,15.8c-0.4,0.3-0.9,0.6-1.3,0.9C434.7,16.4,435.2,16.1,435.6,15.8z"/>
			<path class="st3" d="M409.6,29.7c-0.7,0.3-1.4,0.6-2,0.9C408.2,30.3,408.9,30,409.6,29.7z"/>
			<path class="st3" d="M437.9,14.3c-0.4,0.3-0.9,0.6-1.3,0.9C437.1,14.9,437.5,14.6,437.9,14.3z"/>
			<path class="st3" d="M433.2,17.4c-0.4,0.3-0.9,0.6-1.3,0.8C432.3,17.9,432.8,17.7,433.2,17.4z"/>
			<path class="st3" d="M380.7,40.1c-0.7,0.2-1.4,0.4-2.1,0.6C379.3,40.5,380,40.3,380.7,40.1z"/>
			<path class="st3" d="M268.6,59.4c1.4-0.1,2.7-0.2,4.1-0.4l0,0C271.3,59.1,270,59.2,268.6,59.4z"/>
			<path class="st3" d="M442.5,10.9c-0.5,0.4-0.9,0.7-1.4,1.1C441.6,11.6,442,11.3,442.5,10.9z"/>
			<path class="st3" d="M445.3,8.7c-0.7,0.6-1.4,1.1-2.1,1.7C443.9,9.8,444.6,9.2,445.3,8.7z"/>
			<path class="st3" d="M440.2,12.6c-0.4,0.3-0.9,0.6-1.3,1C439.3,13.3,439.8,12.9,440.2,12.6z"/>
			<path class="st3" d="M349.9,47.9c1.2-0.3,2.4-0.5,3.5-0.8C352.2,47.4,351.1,47.7,349.9,47.9L349.9,47.9z"/>
			<path class="st3" d="M430.8,18.9c-0.5,0.3-0.9,0.5-1.4,0.8C429.9,19.4,430.4,19.1,430.8,18.9z"/>
			<path class="st3" d="M59.6,59.3c-0.4,0-0.7,0-1.1-0.1C58.8,59.3,59.2,59.3,59.6,59.3z"/>
			<path class="st3" d="M415.2,27.2c-0.6,0.3-1.1,0.5-1.7,0.8C414.1,27.7,414.6,27.4,415.2,27.2z"/>
			<path class="st3" d="M417.9,25.9c-0.5,0.3-1.1,0.5-1.6,0.8C416.9,26.4,417.4,26.1,417.9,25.9z"/>
			<path class="st3" d="M412.4,28.5c-0.6,0.3-1.2,0.5-1.8,0.8C411.2,29,411.8,28.7,412.4,28.5z"/>
			<path class="st3" d="M61.7,59.5c-0.5,0-0.9-0.1-1.4-0.1C60.8,59.4,61.3,59.4,61.7,59.5z"/>
			<path class="st3" d="M428.3,20.3c-0.5,0.3-0.9,0.5-1.4,0.8C427.4,20.9,427.9,20.6,428.3,20.3z"/>
			<path class="st3" d="M420.6,24.5c-0.5,0.3-1,0.5-1.5,0.8C419.6,25.1,420.1,24.8,420.6,24.5z"/>
			<path class="st3" d="M55.9,59.1c-0.4,0-0.8-0.1-1.2-0.1C55.1,59,55.5,59,55.9,59.1z"/>
			<path class="st3" d="M425.8,21.8c-0.5,0.3-1,0.5-1.4,0.8C424.9,22.3,425.3,22,425.8,21.8z"/>
			<path class="st3" d="M57.7,59.2c-0.4,0-0.8,0-1.1-0.1C56.9,59.1,57.3,59.2,57.7,59.2z"/>
			<path class="st3" d="M423.2,23.2c-0.5,0.3-1,0.5-1.5,0.8C422.3,23.7,422.7,23.4,423.2,23.2z"/>
			<path class="st3" d="M98.8,61.5c-0.8,0-1.6-0.1-2.4-0.1C97.2,61.4,98,61.4,98.8,61.5z"/>
			<path class="st3" d="M199.6,62.8c-1.1,0-2.2,0-3.3,0.1C197.4,62.9,198.5,62.8,199.6,62.8z"/>
			<path class="st3" d="M191.6,63c-4.1,0.1-8.1,0.1-12.1,0.1C183.5,63.1,187.5,63,191.6,63z"/>
			<path class="st3" d="M203.8,62.7c-1.1,0-2.2,0.1-3.4,0.1C201.6,62.8,202.7,62.8,203.8,62.7z"/>
			<path class="st3" d="M118.4,62.2c-0.9,0-1.7-0.1-2.6-0.1C116.7,62.2,117.6,62.2,118.4,62.2z"/>
			<path class="st3" d="M195.6,62.9c-1.2,0-2.3,0-3.5,0.1C193.3,62.9,194.4,62.9,195.6,62.9z"/>
			<path class="st3" d="M115.1,62.1c-0.9,0-1.7-0.1-2.5-0.1C113.4,62,114.2,62.1,115.1,62.1z"/>
			<path class="st3" d="M225.1,62c-1.2,0-2.4,0.1-3.6,0.1C222.7,62.1,223.9,62.1,225.1,62z"/>
			<path class="st3" d="M108.7,61.9c-3.2-0.1-6.3-0.3-9.3-0.4C102.4,61.6,105.5,61.7,108.7,61.9z"/>
			<path class="st3" d="M208.2,62.6c-1.3,0-2.5,0.1-3.8,0.1C205.7,62.7,207,62.6,208.2,62.6z"/>
			<path class="st3" d="M221.1,62.2c-4.2,0.2-8.4,0.3-12.5,0.4C212.7,62.5,216.9,62.4,221.1,62.2z"/>
			<path class="st3" d="M111.9,62c-0.9,0-1.8-0.1-2.7-0.1C110,61.9,110.9,61.9,111.9,62z"/>
			<path class="st3" d="M167.1,63.1c-1.1,0-2.2,0-3.3,0C164.9,63.1,166,63.1,167.1,63.1z"/>
			<path class="st3" d="M159.5,63.1c-3.9,0-7.7-0.1-11.4-0.1C151.8,63,155.6,63,159.5,63.1z"/>
			<path class="st3" d="M163.3,63.1c-1.3,0-2.5,0-3.8,0C160.7,63.1,162,63.1,163.3,63.1z"/>
			<path class="st3" d="M136.5,62.7c-1.1,0-2.2,0-3.2-0.1C134.3,62.7,135.4,62.7,136.5,62.7z"/>
			<path class="st3" d="M140.1,62.8c-1,0-2,0-2.9-0.1C138.1,62.7,139.1,62.8,140.1,62.8z"/>
			<path class="st3" d="M147.5,62.9c-1,0-2.1,0-3.1-0.1C145.5,62.9,146.5,62.9,147.5,62.9z"/>
			<path class="st3" d="M175,63.1c-1.1,0-2.2,0-3.3,0C172.8,63.1,173.9,63.1,175,63.1z"/>
			<path class="st3" d="M229.3,61.9c-1.1,0-2.2,0.1-3.3,0.1C227,62,228.2,61.9,229.3,61.9z"/>
			<path class="st3" d="M179.4,63.1c-1.3,0-2.5,0-3.8,0C176.8,63.1,178.1,63.1,179.4,63.1z"/>
			<path class="st3" d="M122,62.3c-0.9,0-1.9-0.1-2.8-0.1C120.1,62.3,121,62.3,122,62.3z"/>
			<path class="st3" d="M133,62.6c-3.6-0.1-7.1-0.2-10.5-0.3C125.9,62.4,129.4,62.5,133,62.6z"/>
			<path class="st3" d="M170.9,63.1c-1.1,0-2.1,0-3.2,0C168.8,63.1,169.9,63.1,170.9,63.1z"/>
			<path class="st3" d="M360.4,45.6c-0.8,0.2-1.7,0.4-2.6,0.6C358.7,46,359.6,45.8,360.4,45.6z"/>
			<path class="st3" d="M363.9,44.7c-0.8,0.2-1.6,0.4-2.4,0.6C362.3,45.1,363.1,44.9,363.9,44.7z"/>
			<path class="st3" d="M78.6,60.5c-0.7,0-1.3-0.1-2-0.1C77.3,60.4,77.9,60.4,78.6,60.5z"/>
			<path class="st3" d="M73.4,60.2c-0.6,0-1.1-0.1-1.6-0.1C72.3,60.1,72.9,60.1,73.4,60.2z"/>
			<path class="st3" d="M356.9,46.4c-1,0.2-1.9,0.4-2.9,0.6C355,46.8,356,46.6,356.9,46.4z"/>
			<path class="st3" d="M84.4,60.8c-1.8-0.1-3.6-0.2-5.3-0.3C80.8,60.6,82.6,60.7,84.4,60.8z"/>
			<path class="st3" d="M75.9,60.3c-0.6,0-1.1-0.1-1.7-0.1C74.7,60.2,75.3,60.3,75.9,60.3z"/>
			<path class="st3" d="M377.4,41.1c-0.7,0.2-1.4,0.4-2.1,0.6C376,41.5,376.7,41.3,377.4,41.1z"/>
			<path class="st3" d="M374.1,42c-0.7,0.2-1.4,0.4-2.1,0.6C372.6,42.4,373.4,42.2,374.1,42z"/>
			<path class="st3" d="M367.3,43.8c-0.8,0.2-1.5,0.4-2.3,0.6C365.8,44.2,366.5,44,367.3,43.8z"/>
			<path class="st3" d="M87.1,60.9c-0.8,0-1.7-0.1-2.5-0.1C85.4,60.8,86.3,60.9,87.1,60.9z"/>
			<path class="st3" d="M370.7,43c-0.7,0.2-1.5,0.4-2.2,0.6C369.2,43.3,370,43.1,370.7,43z"/>
			<path class="st3" d="M251.1,60.7c-4.2,0.3-8.4,0.5-12.7,0.7C242.6,61.2,246.8,60.9,251.1,60.7z"/>
			<path class="st3" d="M95.7,61.3c-0.7,0-1.5-0.1-2.2-0.1C94.2,61.2,94.9,61.3,95.7,61.3z"/>
			<path class="st3" d="M143.7,62.9c-1,0-1.9,0-2.9-0.1C141.8,62.8,142.7,62.8,143.7,62.9z"/>
			<path class="st3" d="M233.5,61.7c-1.1,0.1-2.2,0.1-3.3,0.2C231.3,61.8,232.4,61.7,233.5,61.7z"/>
			<path class="st3" d="M255.2,60.4c-1.2,0.1-2.4,0.2-3.6,0.2C252.8,60.6,254,60.5,255.2,60.4z"/>
			<path class="st3" d="M237.9,61.4c-1.2,0.1-2.4,0.1-3.6,0.2C235.5,61.6,236.7,61.5,237.9,61.4z"/>
			<path class="st3" d="M92.7,61.2c-0.7,0-1.4-0.1-2.1-0.1C91.3,61.1,92,61.1,92.7,61.2z"/>
			<path class="st3" d="M89.9,61c-0.7,0-1.4-0.1-2.2-0.1C88.4,61,89.1,61,89.9,61z"/>
			<path class="st3" d="M267.9,59.4c-1.1,0.1-2.3,0.2-3.4,0.3C265.6,59.6,266.7,59.5,267.9,59.4z"/>
			<path class="st3" d="M263.5,59.8c-1.1,0.1-2.2,0.2-3.2,0.2C261.4,59.9,262.4,59.9,263.5,59.8z"/>
			<path class="st3" d="M259.3,60.1c-1.1,0.1-2.2,0.2-3.3,0.2C257.1,60.2,258.2,60.2,259.3,60.1z"/>
			<path class="st3" d="M443.6,78.1L443.6,78.1L449,8c-0.7,0.1-1.4,0.3-2.1,0.4c-0.5,0.1-1,0.2-1.6,0.2c-0.7,0.6-1.4,1.1-2.1,1.7
				c-0.2,0.2-0.5,0.4-0.7,0.6c-0.5,0.4-0.9,0.7-1.4,1.1c-0.3,0.2-0.6,0.4-0.9,0.6c-0.4,0.3-0.9,0.6-1.3,1c-0.3,0.2-0.6,0.4-1,0.7
				s-0.9,0.6-1.3,0.9c-0.3,0.2-0.7,0.4-1,0.7c-0.4,0.3-0.9,0.6-1.3,0.9c-0.3,0.2-0.7,0.4-1.1,0.7c-0.4,0.3-0.9,0.6-1.3,0.8
				c-0.4,0.2-0.7,0.4-1.1,0.7c-0.5,0.3-0.9,0.5-1.4,0.8c-0.4,0.2-0.7,0.4-1.1,0.6c-0.5,0.3-0.9,0.5-1.4,0.8
				c-0.4,0.2-0.8,0.4-1.1,0.6c-0.5,0.3-1,0.5-1.4,0.8c-0.4,0.2-0.8,0.4-1.1,0.6c-0.5,0.3-1,0.5-1.5,0.8c-0.4,0.2-0.8,0.4-1.2,0.6
				c-0.5,0.3-1,0.5-1.5,0.8c-0.4,0.2-0.8,0.4-1.2,0.6c-0.5,0.3-1.1,0.5-1.6,0.8c-0.4,0.2-0.8,0.4-1.1,0.5c-0.6,0.3-1.1,0.5-1.7,0.8
				c-0.4,0.2-0.7,0.3-1.1,0.5c-0.6,0.3-1.2,0.5-1.8,0.8c-0.3,0.2-0.7,0.3-1,0.5c-0.7,0.3-1.4,0.6-2,0.9c-0.3,0.1-0.6,0.2-0.8,0.4
				c-0.9,0.4-1.8,0.7-2.7,1.1c-0.1,0-0.1,0.1-0.2,0.1c-1,0.4-2,0.8-3,1.2c0,0-0.1,0-0.1,0.1c-1,0.4-1.9,0.7-2.9,1.1
				c-0.3,0.1-0.5,0.2-0.8,0.3c-0.8,0.3-1.5,0.6-2.3,0.8c-0.3,0.1-0.7,0.2-1,0.3c-0.7,0.2-1.4,0.5-2.1,0.7c-0.4,0.1-0.7,0.2-1.1,0.4
				c-0.7,0.2-1.4,0.5-2.1,0.7c-0.4,0.1-0.8,0.3-1.2,0.4c-0.7,0.2-1.4,0.4-2,0.7c-0.4,0.1-0.8,0.3-1.2,0.4c-0.7,0.2-1.4,0.4-2,0.6
				c-0.4,0.1-0.8,0.2-1.2,0.4c-0.7,0.2-1.4,0.4-2.1,0.6c-0.4,0.1-0.8,0.2-1.2,0.4c-0.7,0.2-1.4,0.4-2.1,0.6
				c-0.4,0.1-0.8,0.2-1.2,0.3c-0.7,0.2-1.4,0.4-2.1,0.6c-0.4,0.1-0.8,0.2-1.2,0.3c-0.7,0.2-1.5,0.4-2.2,0.6
				c-0.4,0.1-0.8,0.2-1.2,0.3c-0.8,0.2-1.5,0.4-2.3,0.6c-0.4,0.1-0.8,0.2-1.2,0.3c-0.8,0.2-1.6,0.4-2.4,0.6
				c-0.4,0.1-0.7,0.2-1.1,0.3c-0.8,0.2-1.7,0.4-2.6,0.6c-0.3,0.1-0.6,0.1-0.9,0.2c-1,0.2-1.9,0.4-2.9,0.6c-0.2,0-0.4,0.1-0.6,0.1
				c-1.2,0.3-2.4,0.5-3.5,0.8c6.7-0.4,11.5-0.5,13.1-0.5c5,0.1,4.5,13.1-0.2,13.3c-1.7,0.1-6.4-1.3-13.3-1.2
				c-20,0.1-56.5-0.1-76.7-1.2c-1.4,0.1-2.7-0.1-4.1,0.1c-0.2,0-0.5,0-0.7,0.1c-1.1,0.1-2.3,0.2-3.4,0.3c-0.3,0-0.6,0-1,0.1
				c-1.1,0.1-2.2,0.2-3.2,0.2c-0.3,0-0.6,0-1,0.1c-1.1,0.1-2.2,0.2-3.3,0.2c-0.3,0-0.6,0-0.9,0.1c-1.2,0.1-2.4,0.2-3.6,0.2
				c-0.2,0-0.3,0-0.5,0c-4.2,0.3-8.4,0.5-12.7,0.7c-0.2,0-0.3,0-0.5,0c-1.2,0.1-2.4,0.1-3.6,0.2c-0.3,0-0.5,0-0.8,0
				c-1.1,0.1-2.2,0.1-3.3,0.2c-0.3,0-0.6,0-0.9,0c-1.1,0-2.2,0.1-3.3,0.1c-0.3,0-0.5,0-0.8,0c-1.2,0-2.4,0.1-3.6,0.1
				c-0.2,0-0.3,0-0.5,0c-4.2,0.2-8.4,0.3-12.5,0.4c-0.1,0-0.2,0-0.3,0c-1.3,0-2.5,0.1-3.8,0.1c-0.2,0-0.5,0-0.7,0
				c-1.1,0-2.2,0.1-3.4,0.1c-0.3,0-0.5,0-0.8,0c-1.1,0-2.2,0-3.3,0.1c-0.2,0-0.5,0-0.7,0c-1.2,0-2.3,0-3.5,0.1c-0.2,0-0.3,0-0.5,0
				c-4.1,0.1-8.1,0.1-12.1,0.1h-0.1c-1.3,0-2.5,0-3.8,0c-0.2,0-0.4,0-0.6,0c-1.1,0-2.2,0-3.3,0c-0.3,0-0.5,0-0.8,0
				c-1.1,0-2.1,0-3.2,0c-0.2,0-0.5,0-0.7,0c-1.1,0-2.2,0-3.3,0c-0.2,0-0.4,0-0.5,0c-1.3,0-2.5,0-3.8,0l0,0c-3.9,0-7.7-0.1-11.4-0.1
				c-0.2,0-0.4,0-0.6,0c-1,0-2.1,0-3.1-0.1c-0.2,0-0.5,0-0.7,0c-1,0-1.9,1-2.9,0.9c-0.3,0-0.5,0-0.8,0c-1,0-2,0-2.9-0.1
				c-0.2,0-0.4,0-0.6,0c-1.1,0-2.2,0-3.2-0.1c-0.1,0-0.2,0-0.3,0c-3.6-0.1-7.1-0.2-10.5-0.3c-0.2,0-0.4,0-0.5,0
				c-0.9,0-1.9-0.1-2.8-0.1c-0.2,0-0.5,0-0.7,0c-0.9,0-1.7-0.1-2.6-0.1c-0.3,0-0.5,0-0.8,0c-0.9,0-1.7-0.1-2.5-0.1
				c-0.2,0-0.5,0-0.7,0c-0.9,0-1.8-0.1-2.7-0.1c-0.2,0-0.3,0-0.5,0c-3.2-0.1-6.3-0.3-9.3-0.4c-0.2,0-0.4,0-0.6,0
				c-0.8,0-1.6-0.1-2.4-0.1c-0.2,0-0.5,0-0.7,0c-0.7,0-1.5-0.1-2.2-0.1c-0.3,0-0.5,0-0.8,0c-0.7,0-1.4-0.1-2.1-0.1
				c-0.2,0-0.5,0-0.7,0c-0.7,0-1.4-0.1-2.2-0.1c-0.2,0-0.4,0-0.6,0c-0.8,0-1.7-0.1-2.5-0.1c-0.1,0-0.1,0-0.2,0
				c-1.8-0.1-3.6-0.2-5.3-0.3c-0.2,0-0.3,0-0.5,0c-0.7,0-1.3-0.1-2-0.1c-0.3,0-0.5,0-0.7,0c-0.6,0-1.1-0.1-1.7-0.1
				c-0.3,0-0.5,0-0.8,0c-0.6,0-1.1-0.1-1.6-0.1c-0.3,0-0.5,0-0.8,0c-0.5,0-1.1-0.1-1.6-0.1c-0.2,0-0.4,0-0.7,0
				c-0.6,0-1.2-0.1-1.8-0.1c-0.1,0-0.3,0-0.4,0c-0.7,0-1.5-0.1-2.2-0.1h-0.1c-0.7,0-1.3-0.1-2-0.1c-0.2,0-0.4,0-0.6,0
				c-0.5,0-0.9-0.1-1.4-0.1c-0.3,0-0.5,0-0.8-0.1c-0.4,0-0.7,0-1.1-0.1c-0.3,0-0.5,0-0.8-0.1c-0.4,0-0.8,0-1.1-0.1
				c-0.2,0-0.4,0-0.6,0c-0.4,0-0.8-0.1-1.2-0.1c-0.2,0-0.4,0-0.6,0c-0.4,0-0.8-0.1-1.1-0.1c-0.2,0-0.4,0-0.5,0c-0.5,0-1-0.1-1.5-0.1
				l-0.2,21.9l1.4,1.4C205.9,57,441.5,78.1,443.6,78.1z"/>
		</g>
	</g>
	<g>
		<polygon class="st4" points="27.4,29.7 36.2,33.2 39.2,25.6 32,22.8 30,23.3 		"/>
		<polygon class="st4" points="30,23.3 32,22.8 30.4,22.1 		"/>
		<polygon class="st5" points="15.6,30.5 16.8,34.7 21.8,33.2 21,30.9 17,30.1 		"/>
		<polygon class="st5" points="17,30.1 21,30.9 20.5,29 		"/>
		<polygon class="st5" points="84.3,31.7 90,26.7 86.3,22.4 85.6,23.4 84.7,22.7 80,26.8 		"/>
		<polygon class="st5" points="86.3,22.4 85.7,21.8 84.7,22.7 85.6,23.4 		"/>
		<polygon class="st5" points="60.5,34.7 66.6,23.6 63.2,21.7 57.7,20.2 53.5,21.9 49.7,28.8 		"/>
		<polygon class="st5" points="57,20 57.5,18.6 55.8,17.7 53.5,21.9 57.7,20.2 		"/>
		<polygon class="st5" points="63.2,21.7 59.2,19.5 57.7,20.2 		"/>
		<polygon class="st5" points="57.7,20.2 59.2,19.5 57.5,18.6 57,20 		"/>
		
			<rect x="109.4" y="25.2" transform="matrix(0.4366 -0.8997 0.8997 0.4366 37.7253 117.0331)" class="st4" width="5.9" height="6.4"/>
		<polygon class="st6" points="120.9,47.9 129.7,57.3 137.5,49.9 134.9,45.3 135.7,43.4 131,38.4 		"/>
		<polygon class="st6" points="82.3,50 91.6,58.3 99.1,49.7 89.9,41.5 		"/>
		
			<rect x="28.4" y="41.4" transform="matrix(0.4292 -0.9032 0.9032 0.4292 -22.9906 59.2907)" class="st6" width="14" height="12.8"/>
		<polygon class="st7" points="100.4,18.8 99.5,14.7 94.7,15.8 95.6,19.9 		"/>
		<polygon class="st5" points="133,18.7 132.3,17.4 131.2,18 131.7,19.9 		"/>
		<polygon class="st8" points="106,48.2 110,52.2 115.1,47 111.1,43.1 		"/>
		<rect x="69.1" y="53.5" transform="matrix(0.4805 -0.877 0.877 0.4805 -12.2394 93.3044)" class="st6" width="7.1" height="6.9"/>
		<polygon class="st6" points="91.8,34.1 95.3,40.2 101.3,36.7 97.7,30.6 		"/>
		<polygon class="st8" points="134.6,72.8 136.2,73.1 135.9,71.4 140.9,66.2 135.8,65.3 		"/>
		<polygon class="st9" points="123.6,68.6 118.5,73.8 120.1,75.4 120.1,75.4 126.6,73.6 127.6,72.6 		"/>
		<polygon class="st9" points="122.6,77.6 126.6,73.6 120.1,75.4 		"/>
		<path class="st9" d="M120.1,75.4L120.1,75.4L120.1,75.4z"/>
		<polygon class="st9" points="120.1,75.4 122.5,77.7 122.6,77.6 		"/>
		<polygon class="st8" points="35.4,69.2 36.1,73.3 43.9,70 46.4,76.2 47,75.3 45.6,67.4 		"/>
		<polygon class="st8" points="43.9,70 36.1,73.3 36.6,76.4 37.9,77.8 46.3,76.3 46.4,76.2 		"/>
		<polygon class="st8" points="46.5,76.3 47.1,76.2 47,75.3 46.4,76.2 		"/>
		<polygon class="st8" points="46.3,76.3 46.5,76.3 46.4,76.2 		"/>
		<polygon class="st8" points="36.9,78 37.9,77.8 36.6,76.4 		"/>
		<rect x="53.1" y="59.8" transform="matrix(0.4804 -0.877 0.877 0.4804 -25.5087 83.109)" class="st8" width="8.6" height="6.5"/>
		<polygon class="st9" points="28.5,65.4 27,63.9 26.2,67.7 		"/>
		<polygon class="st9" points="21.3,64.6 24.1,64.5 24.4,69.6 26.2,67.7 27,63.9 24.5,61.4 		"/>
		<polygon class="st9" points="21.3,64.6 19.4,66.6 23.4,70.5 24.4,69.6 24.1,64.5 		"/>
		<polygon class="st9" points="69.2,70.4 69.1,71 74.9,75.3 75.6,71.5 		"/>
		<polygon class="st9" points="67.9,77.8 74.3,78.9 74.9,75.3 69.1,71 		"/>
		<polygon class="st8" points="95.1,67 88.4,70.9 92,77.1 93.5,72.7 98.4,74.3 99.1,73.9 		"/>
		<polygon class="st8" points="92,77.1 92.4,77.8 98.4,74.3 93.5,72.7 		"/>
		<polygon class="st10" points="57.1,49.5 63.4,50.6 64.7,43.2 58.3,42.1 		"/>
		<polygon class="st10" points="21.1,50.5 17.1,46.6 14.6,49.1 18.4,53.3 		"/>
		<polygon class="st10" points="12.7,52.4 13.2,52.9 17.8,53.9 18.4,53.3 14.6,49.1 13.9,49.9 		"/>
		<polygon class="st10" points="12,51.8 12.7,52.4 13.9,49.9 		"/>
		<polygon class="st10" points="16,55.7 17.8,53.9 13.2,52.9 		"/>
		<polygon class="st10" points="104.5,59.8 105.9,64.5 109.9,63.2 108.5,58.5 		"/>
		<polygon class="st5" points="131.7,19.9 131.2,18 125.9,21.2 123.5,22.6 128.8,31.6 135.9,27.8 		"/>
		<polygon class="st11" points="139.7,34.9 125.8,37.1 134.9,45.3 		"/>
		<polygon class="st11" points="144.7,62.4 127.8,63.5 135.9,71.4 		"/>
		<polygon class="st11" points="137.7,14.4 131.4,13 131.7,19.9 		"/>
	</g>
	<g>
		<polygon class="st7" points="384,31.9 389.1,23.7 381.9,19.2 381.1,19.6 376.4,27.2 		"/>
		<polygon class="st7" points="381.5,19 381.1,19.6 381.9,19.2 		"/>
		
			<rect x="387" y="40.3" transform="matrix(0.4952 -0.8688 0.8688 0.4952 158.1416 363.9678)" class="st6" width="10.6" height="11.3"/>
		
			<rect x="438.1" y="41.4" transform="matrix(0.5661 -0.8243 0.8243 0.5661 154.0966 386.0844)" class="st6" width="11.4" height="10.5"/>
		<g>
			<path class="st12" d="M136.6,75.1l-0.4-2.1l-1.7-0.3l1.3-7.4l5.1,0.9l3.7-3.9l-7.1-12.4l-7.8,7.4l-8.8-9.4l10.1-9.5l4.7,5
				l3.9-8.5l-3.8-7.1l-7.1,3.8l-5.3-9l2.4-1.4l5.3-3.1l1.1-0.6l0.7,1.3l4.7-4.3l-3.7-4l-1-1.5l-4.7-5.1l-5.6,5.2h-6.3L106.8,6
				l-1,3.2h-1.7l-2.8-4.7l-8,4.7H89l-6.7-5l-3.7,5h-4L61.2,5.4l-1.1,3.8h-3.5l-1.1-2.6l-4.4,1.8l-7.9-6.9l-4.4,5l-4.9-2.4L31.5,9
				l0,0l-13.7,3.3l0.8,3.4L13.9,15l-1.6,8.1l-9.7,8.3l3.3,3.9L0,48.2l6.7,3.1l-3.6,3.3l5.1,5.6L6,69.8l5,1.1l0.4,8.4l9.4-0.5l9,10.1
				l4.7-4.2l1.3,3.1l5.7-2.4c2.1,0.4,4.3,0.6,6.6,0.6h0.7l7.4,4.6l3-4.7h7.6l5.5,4.1l3.1-4.2h3.7l4.7,5.1l5.6-5.2h1.3l11.9,3.9
				l1.3-4h6.4l3,2.6l2.3-2.6h5.6l0.8,2.9l10.3-3h5.8l-0.1-0.7L136.6,75.1z M64.7,43.2l-1.3,7.4L57,49.5l1.3-7.4L64.7,43.2z
				 M53.5,21.9l2.3-4.3l1.6,0.9l1.8,1l4,2.2l3.3,1.8l-6.1,11.1l-10.8-5.9L53.5,21.9z M32,22.8l7.2,2.8l-3,7.5l-8.8-3.5l2.5-6.4
				l0.4-1.1L32,22.8z M26.2,67.7l-1.8,1.8l-0.9,1l-4-4l1.9-1.9l3.2-3.2l2.5,2.5l1.5,1.5L26.2,67.7z M15.6,30.5l1.5-0.4l3.5-1.1
				l0.6,1.9l0.7,2.4L17,34.8L15.6,30.5z M13.2,52.9l-0.5-0.5L12,51.8l1.8-1.9l0.8-0.8l2.5-2.5l4,4l-2.7,2.7L17.7,54L16,55.7
				L13.2,52.9z M26.6,51.4l6-12.7l11.6,5.5l-6,12.7L26.6,51.4z M46.5,76.3L46.5,76.3L38,77.8L37,78l-0.3-1.6l-0.5-3.1l-0.7-4
				l10.2-1.8l1.4,7.9l0.1,0.8L46.5,76.3z M58.2,68.4l-5.7-3.1l4.1-7.5l5.7,3.1L58.2,68.4z M111.1,43.1l4,4l-5.1,5.2l-4-4L111.1,43.1
				z M116.4,27.1l-2.6,5.3l-5.7-2.8l2.6-5.3L116.4,27.1z M97.7,30.6l3.6,6.1l-5.9,3.5l-3.6-6.1L97.7,30.6z M99.5,14.7l0.9,4.1
				l-4.8,1.1l-0.9-4.1L99.5,14.7z M84.7,22.7l1-0.9l0.6,0.7l3.7,4.2l-5.7,5.1l-4.3-5L84.7,22.7z M67.9,58.4l3.4-6.2l6.1,3.3L74,61.8
				L67.9,58.4z M67.9,77.8l1.2-6.9l0.1-0.6l6.4,1.1l-0.7,3.9l-0.6,3.6L67.9,77.8z M91.6,58.3L82.3,50l7.6-8.6l9.3,8.2L91.6,58.3z
				 M98.4,74.3l-5.9,3.5L92,77.1L88.4,71l6.6-3.9l4,6.8L98.4,74.3z M105.9,64.5l-1.4-4.7l4-1.2l1.4,4.7L105.9,64.5z M126.6,73.6
				l-4,4l-0.2,0.2l-2.4-2.3l-0.1-0.1l-1.6-1.6l5.1-5.2l4,4L126.6,73.6z"/>
			<path class="st12" d="M483.5,69.9l9.5-8.5l-3.4-3.8l5.6-12.9l-5.7-2.5c0-0.5-0.1-0.9-0.2-1.4l2.5-2.4l-3.9-4.1
				c-0.3-1-0.7-2-1.1-3l1.6-8.1l-5-1l-0.6-8.3l-9.2,0.7c-0.7-0.5-1.5-1-2.2-1.5L466.1,7l-2.3,2.2c-1.5-0.5-2.9-0.9-4.5-1.2l-1-3
				l-6.5,2.2c0,0,0,0-0.1,0l-10.8-3.9L439.6,7l-6.9-6l-5.4,6.3H425l-2.1-4.2l-8.4,4.2h-2.9l-10.3-5.6l-3.1,5.6h-3.3L392.2,4
				l-4.4,3.5h-2.6l-1.8-3.8l-7.7,3.8h-4.5l-4-3.5l-3,3.5l-6.6-3.7L348,19.4l6.2,13.9l-9,13.8l14,13.7l-8.3,13.4l6.7,13.5l3.1-3.5
				h2.8l3,6.1l11.7-5.7l2.4,3l4.3-3.4h1.8l8.8,4.8l2.6-4.8h5.8l2,4.1l8.2-4.1h4.3l5.4,4.7l4-4.7h0.2l3,3.9l5-3.9h1.1l1.1,4l7.6-2.1
				l5.6,4.7l4.8-5.7l6.1,2.8l2.5-5.5l0.6,2.3l13.7-3.6l-0.9-3.3l3.8,0.7L483.5,69.9z M358.8,25l0.9-5.5l0.3-2l0.6,0.1l0.5,0.1
				l5.2,0.9l-0.5,3.2l-0.7,4.3L358.8,25z M460.7,12.2l1.8,5.5l0,0L460.7,12.2l-4.3,4l0,0L460.7,12.2z M458.9,18.9L458.9,18.9
				L458.9,18.9h0.1l1.4,0.2l-0.2,1.1l-1.1,6.3l-6.4-1.1l0.8-4.8l0.4-2.6L458.9,18.9z M428.8,47l-4.2-0.7l0.8-4.9l4.2,0.7L428.8,47z
				 M430.1,16.4l4-2.4l1.9,3.2l0.4,0.7l0.2,0.3l2.8,4.8l-8.7,5.2l-5.3-9L430.1,16.4z M400.4,14.3l4.1,0.7l-1.3,7.4l-6-1l-0.4-0.1
				v-0.1l0.6-3.4l0.7-3.9L400.4,14.3z M377.3,51.4l4.6,5.6l-4.3,3.6L373,55L377.3,51.4z M362.5,54.2l-6.1-3.3l3.4-6.2l6.1,3.3
				L362.5,54.2z M372.7,37.4l-4.9-3.1l2.7-4.2l4.9,3.1L372.7,37.4z M376.4,27.2l4.7-7.6l0.4-0.6l0.4,0.2l7.2,4.5l-5.1,8.2
				L376.4,27.2z M378.4,71.2l-2.9,5.3l-1.3,2.3l-1.1-0.6l-5.8-3.2l-3.7-2.1l6-11l10.6,5.8L378.4,71.2z M394.6,53.4l-9.9-5.6l5.2-9.2
				l9.9,5.6L394.6,53.4z M409.1,26.4l11.2,1.6l-1.3,8.8l-11.2-1.6L409.1,26.4z M391,71.4l2.2-5.6l0.2-0.5l7,2.8l-0.5,1.3l-1.9,4.7
				L391,71.4z M408.6,53.6l-1.1-7.5l6.4-1l1.1,7.5L408.6,53.6z M418,73.8l-2.9,1l-3.5-10.7l9.2-3l3.3,10.1l0.2,0.5L418,73.8z
				 M432.4,63.2l-6.1-3.3l3.4-6.2l6.1,3.3L432.4,63.2z M444.9,54.3l-8.7-6l6.4-9.4l8.7,6L444.9,54.3z M451.8,37.3l2.7-4.2l4.9,3.1
				l-2.7,4.2L451.8,37.3z M447.8,73.9l-1.9,1.1l-0.9-1.5l-1.1-1.9l-2-3.4l6.6-3.9l0.6,1l3.4,5.8L447.8,73.9z M460,60.8l-6.5-7
				l5.5-5.1l6.5,7L460,60.8z M468.4,37.8l0.1-0.3l1.2-7.1l6.4,1.1l-0.9,5.1l-0.3,1.5l-0.1,0.7v0.1L468.4,37.8z M476.1,45.9l2.9,2.8
				l1.2,1.1l-2.5,2.5L475,55l-4-4L476.1,45.9z M469.1,75.3l-1.5,0.6l-2.3,1l-1.3-3.2l-1-2.5l-1.3-3.2l9.4-3.9l1-0.4l1.9,4.6l1.8,4.3
				L469.1,75.3z"/>
		</g>
		<polygon class="st5" points="407.8,35.2 419,36.9 420.3,28.1 409.1,26.4 		"/>
		<polygon class="st5" points="361.2,19.1 359.8,19.5 358.8,25 365.2,26 365.9,21.8 361.3,17.7 360.7,17.6 		"/>
		<polygon class="st5" points="360.7,17.6 360.1,17.5 359.8,19.5 361.2,19.1 		"/>
		<polygon class="st5" points="366.5,18.6 361.3,17.7 365.9,21.8 		"/>
		<polygon class="st5" points="430.6,28.1 439.4,23 436.6,18.2 434.7,20.3 430.1,16.4 425.4,19.2 		"/>
		<polygon class="st5" points="436.6,18.2 436.4,17.8 435.8,17.6 436,17.2 434.1,14 430.1,16.4 434.7,20.3 		"/>
		<polygon class="st5" points="436.4,17.8 436,17.2 435.8,17.6 		"/>
		<polygon class="st6" points="407.5,46.2 408.6,53.6 415,52.6 413.9,45.2 		"/>
		
			<rect x="369.1" y="30.8" transform="matrix(0.5366 -0.8438 0.8438 0.5366 143.7402 329.1959)" class="st6" width="5" height="5.8"/>
		<polygon class="st8" points="453.5,53.7 460,60.8 465.5,55.7 458.9,48.6 		"/>
		<rect x="357.6" y="46" transform="matrix(0.4806 -0.877 0.877 0.4806 144.2163 342.4604)" class="st6" width="7.1" height="6.9"/>
		<polygon class="st8" points="373,55 377.6,60.6 381.9,57 377.3,51.4 		"/>
		<polygon class="st5" points="474.8,38.9 474.8,38.7 468.5,37.5 468.4,37.8 		"/>
		<polygon class="st5" points="474.9,38.1 474.3,37.4 475.2,36.6 476.1,31.4 469.7,30.4 468.5,37.5 474.8,38.7 		"/>
		<polygon class="st5" points="474.9,38.1 475.2,36.6 474.3,37.4 		"/>
		<polygon class="st4" points="459.2,26.6 460.2,20.3 458.9,18.9 453.6,20.7 452.8,25.5 		"/>
		<polygon class="st4" points="458.8,19 454,18.1 453.5,20.8 		"/>
		<polygon class="st4" points="460.1,20.2 460.3,19.1 458.7,18.8 458.7,18.8 		"/>
		<path class="st4" d="M458.9,18.9L458.9,18.9L458.9,18.9z"/>
		<polygon class="st5" points="429.7,42.1 425.4,41.4 424.6,46.3 428.8,47 		"/>
		<rect x="427.5" y="55" transform="matrix(0.4805 -0.877 0.877 0.4805 172.712 408.4112)" class="st6" width="7.1" height="6.9"/>
		<polygon class="st9" points="369.6,62 363.6,72.9 367.4,75 373.1,78.1 374.3,78.8 375.5,76.5 378.4,71.2 380.3,67.8 		"/>
		<polygon class="st8" points="471,51 475,55 477.6,52.4 477.4,52.3 479,48.7 476.1,45.9 		"/>
		<polygon class="st8" points="477.6,52.4 480.1,49.8 479,48.7 477.4,52.3 		"/>
		<polygon class="st8" points="411.6,64.1 415.1,74.8 418,73.8 421.9,69.4 424.1,71.2 420.8,61.1 		"/>
		<polygon class="st8" points="418,73.8 424.3,71.8 424.1,71.2 421.9,69.4 		"/>
		<polygon class="st10" points="396.9,21.4 397.3,21.4 396.9,21.2 		"/>
		<polygon class="st10" points="397.5,17.8 396.9,21.2 397.3,21.4 403.3,22.4 404.5,15 400.4,14.3 401,15 		"/>
		<polygon class="st10" points="397.5,17.8 401,15 400.4,14.3 398.2,13.9 		"/>
		
			<rect x="453.1" y="33.9" transform="matrix(0.5373 -0.8434 0.8434 0.5373 179.7872 401.3176)" class="st10" width="5" height="5.8"/>
		<polygon class="st13" points="393.4,65.4 393.2,65.9 399.9,69.5 400.4,68.2 		"/>
		<polygon class="st13" points="391,71.4 398,74.2 399.9,69.5 393.2,65.9 		"/>
		<polygon class="st13" points="473.9,68.3 472,63.7 471.1,64.1 461.6,68 463,71.2 464,73.7 465.3,76.9 467.6,75.9 469.1,75.3 
			475.7,72.6 		"/>
		<polygon class="st9" points="448.5,64.3 441.8,68.2 443.8,71.6 449.1,65.3 		"/>
		<polygon class="st9" points="449.1,65.3 443.8,71.6 444.9,73.5 447.5,72.8 447.8,73.9 452.5,71.1 		"/>
		<polygon class="st9" points="444.9,73.5 445.8,75 447.8,73.9 447.5,72.8 		"/>
		<polygon class="st11" points="348,19.4 358.6,26.3 354.2,33.4 		"/>
		<polygon class="st11" points="345.2,47.1 362.3,49.8 359.2,60.9 		"/>
		<polygon class="st11" points="350.9,74.2 359.2,80.2 360.7,84.2 357.6,87.7 		"/>
	</g>
	<g class="st14">
		<path class="st9" d="M495.4,44.5l-5.7-2.5c0-0.5-0.1-0.9-0.2-1.4l2.5-2.4l-3.9-4.1c-0.3-1-0.7-2-1.1-3l1.6-8.1l-5-1l-0.6-8.3
			l-9.2,0.7c-0.7-0.5-1.5-1-2.2-1.5L466.2,7l-2.3,2.2c-1.5-0.5-2.9-0.9-4.5-1.2l-0.1-0.2c-12,37.9-57.2,55.2-105.8,62.3l-2.5,4
			l6.7,13.5l3.1-3.5h2.8l3,6.1l11.7-5.8l2.4,3.1l4.3-3.4h1.8l8.8,4.8l2.6-4.8h5.8l2,4.1l8.2-4.1h4.3l5.4,4.8l4-4.5h0.2l3,3.7l5-4
			h1.1l1.1,3.9l7.6-2.1l5.6,4.7l4.8-5.7l6.1,2.8L465,82l0.6,2.3l13.7-3.6l-0.9-3.3l3.8,0.7l1.4-8.2l9.5-8.5l-3.4-3.8L495.4,44.5z
			 M462.7,17.8l-1.9-5.6l-0.3,0.3l-4,3.7l0,0l4-3.7l0.3-0.3L462.7,17.8L462.7,17.8z"/>
	</g>
	<g class="st14">
		<path class="st5" d="M102.7,89.8l1.3-4L102.7,89.8z"/>
		<polygon class="st5" points="56.3,90.6 56.3,90.6 59.2,85.9 59.2,85.9 		"/>
		<polygon class="st5" points="72.3,90 72.3,90 66.8,85.9 		"/>
		<path class="st5" d="M122.2,88.7l10.3-3L122.2,88.7z"/>
		<polygon class="st5" points="113.5,88.4 115.8,85.8 115.8,85.8 		"/>
		<path class="st5" d="M110.4,85.8l3.1,2.6L110.4,85.8z"/>
		<polygon class="st9" points="72.3,90 72.3,90 75.5,85.9 75.5,85.9 		"/>
		<polygon class="st9" points="102.7,89.8 102.7,89.8 90.8,85.8 		"/>
		<polygon class="st9" points="121.4,85.7 122.2,88.7 122.2,88.7 		"/>
		<polygon class="st9" points="56.3,90.6 56.3,90.6 48.9,86 		"/>
		<path class="st9" d="M136.6,75.1l-0.4-2.1l-0.2-1c-48.3,6.7-99.5,3.8-124.8,1.6l0.3,5.6l9.4-0.5l9,10.1l4.7-4.2l1.3,3.1l5.7-2.4
			c2.1,0.4,4.3,0.6,6.6,0.6h0.7l7.4,4.6l3-4.7l0,0h7.6l5.5,4.1l3.1-4.2l0,0h3.7l4.7,5.1l5.6-5.2h1.3l11.9,3.9l1.3-4h6.4l0,0l3,2.6
			l2.3-2.6l0,0h5.6l0,0l0.8,2.9l10.3-3h5.8l-0.1-0.7L136.6,75.1z"/>
	</g>
</g>
</svg>
